# File generated by ImageToStl.com - Free Image and 3D model conversion tools

o obj1
v 0 34.64 0.25
v -20 0 0.25
v -19.84 -0.08 0.17
v 0.15 34.55 0.17
v -19.78 -0.12 0
v 0.21 34.51 0
v -19.84 -0.08 -0.17
v 0.15 34.55 -0.17
v -20 0 -0.25
v 0 34.64 -0.25
v -20.15 0.08 -0.17
v -0.15 34.72 -0.17
v -20.21 0.12 0
v -0.21 34.76 0
v -20.15 0.08 0.17
v -0.15 34.72 0.17
v 20 0 0.25
v 20 0.17 0.17
v -20 0.17 0.17
v 20 0.25 0
v -20 0.25 0
v 20 0.17 -0.17
v -20 0.17 -0.17
v 20 0 -0.25
v 20 -0.17 -0.17
v -20 -0.17 -0.17
v 20 -0.25 0
v -20 -0.25 0
v 20 -0.17 0.17
v -20 -0.17 0.17
v -0.15 34.55 0.17
v 19.84 -0.08 0.17
v -0.21 34.51 0
v 19.78 -0.12 0
v -0.15 34.55 -0.17
v 19.84 -0.08 -0.17
v 0.15 34.72 -0.17
v 20.15 0.08 -0.17
v 0.21 34.76 0
v 20.21 0.12 0
v 0.15 34.72 0.17
v 20.15 0.08 0.17
v 0 34.84 0.14
v 0 11.75 32.8
v 0.17 11.69 32.76
v 0.17 34.78 0.1
v 0.25 11.54 32.65
v 0.25 34.64 0
v 0.17 11.4 32.55
v 0.17 34.49 -0.1
v 0 11.34 32.51
v 0 34.43 -0.14
v -0.17 11.4 32.55
v -0.17 34.49 -0.1
v -0.25 11.54 32.65
v -0.25 34.64 0
v -0.17 11.69 32.76
v -0.17 34.78 0.1
v -0.17 11.44 32.8
v -20.17 -0.1 0.14
v -20.03 -0.22 0.1
v -0.03 11.32 32.76
v -19.87 -0.21 0
v 0.12 11.33 32.65
v -19.78 -0.08 -0.1
v 0.21 11.46 32.55
v -19.82 0.1 -0.14
v 0.17 11.64 32.51
v -19.96 0.22 -0.1
v 0.03 11.77 32.55
v -20.12 0.21 0
v -0.12 11.76 32.65
v -20.21 0.08 0.1
v -0.21 11.62 32.76
v 0.17 11.44 32.8
v 20.17 -0.1 0.14
v 20.21 0.08 0.1
v 0.21 11.62 32.76
v 20.12 0.21 0
v 0.12 11.76 32.65
v 19.96 0.22 -0.1
v -0.03 11.77 32.55
v 19.82 0.1 -0.14
v -0.17 11.64 32.51
v 19.78 -0.08 -0.1
v -0.21 11.46 32.55
v 19.87 -0.21 0
v -0.12 11.33 32.65
v 20.03 -0.22 0.1
v 0.03 11.32 32.76
v 0 34.64 0.09
v -20 0 0.09
v 20 0 0.09
v 0 34.64 -0.09
v 20 0 -0.09
v -20 0 -0.09
v -19.91 -0.04 -0.03
v 0.08 34.59 -0.03
v 0.08 11.49 32.62
v -20.08 0.04 0.03
v -0.08 11.59 32.69
v -0.08 34.68 0.03
v 20 0.09 -0.03
v -20 0.09 -0.03
v 0 11.64 32.62
v 20 -0.09 0.03
v 0 11.45 32.69
v -20 -0.09 0.03
v -0.08 34.59 -0.03
v 19.91 -0.04 -0.03
v -0.08 11.49 32.62
v 0.08 34.68 0.03
v 0.08 11.59 32.69
v 20.08 0.04 0.03
vn 0 0 1
vn 0.61 -0.35 0.7
vn 0.86 -0.5 0
vn 0.61 -0.35 -0.7
vn 0 -0 -1
vn -0.61 0.35 -0.7
vn -0.86 0.5 -0
vn -0.61 0.35 0.7
vn 0.5 0.86 0
vn 0.49 0.86 0
vn -0.5 -0.86 0
vn -0.49 -0.86 0
vn -0 0.7 0.7
vn -0 1 0
vn -0 0.7 -0.7
vn 0 -0.7 -0.7
vn 0 -1 -0
vn 0 -0.7 0.7
vn -0.99 0 0
vn -1 0 0
vn 1 0 0
vn -0.61 -0.35 0.7
vn -0.86 -0.5 0
vn -0.61 -0.35 -0.7
vn 0.61 0.35 -0.7
vn 0.86 0.5 -0
vn 0.61 0.35 0.7
vn 0.49 -0.86 0
vn 0.5 -0.86 0
vn -0.49 0.86 0
vn -0.5 0.86 0
vn 0 0.81 0.57
vn 0.7 0.57 0.4
vn 0.7 -0.57 -0.4
vn 0 -0.81 -0.57
vn -0.7 -0.57 -0.4
vn -0.7 0.57 0.4
vn -0 0.57 -0.81
vn 0 -0.57 0.81
vn -0.7 -0.4 0.57
vn -0.14 -0.9 0.4
vn 0.85 -0.32 -0.4
vn 0.7 0.4 -0.57
vn 0.14 0.9 -0.4
vn -0.85 0.32 0.4
vn 0.49 0.28 0.81
vn 0.5 0.28 0.81
vn -0.49 -0.28 -0.81
vn 0.7 -0.4 0.57
vn 0.85 0.32 0.4
vn -0.14 0.9 -0.4
vn -0.7 0.4 -0.57
vn -0.85 -0.32 -0.4
vn 0.14 -0.9 0.4
vn -0.49 0.28 0.81
vn -0.5 0.28 0.81
vn 0.49 -0.28 -0.81
vn 0.81 -0.47 -0.33
vn -0.81 0.47 0.33
vn -0.28 0.16 -0.94
vn 0.57 0.66 0.47
vn -0.28 -0.83 0.47
vn 0 0.94 -0.33
vn 0 -0.94 0.33
vn 0 -0.33 -0.94
vn -0.86 0.16 0.47
vn 0.86 0.16 0.47
vn -0.81 -0.47 -0.33
vn 0.81 0.47 0.33
vn 0.28 0.16 -0.94
vn 0.28 -0.83 0.47
vn -0.57 0.66 0.47
f 1//1 2//1 3//1
f 1//1 3//1 4//1
f 4//2 3//2 5//2
f 4//2 5//2 6//2
f 6//3 5//3 7//3
f 6//3 7//3 8//3
f 8//4 7//4 9//4
f 8//4 9//4 10//4
f 10//5 9//5 11//5
f 10//5 11//5 12//5
f 12//6 11//6 13//6
f 12//6 13//6 14//6
f 14//7 13//7 15//7
f 14//7 15//7 16//7
f 16//8 15//8 2//8
f 16//8 2//8 1//8
f 1//9 4//9 6//9
f 1//9 6//9 8//9
f 1//9 8//9 10//9
f 1//10 10//10 12//10
f 1//10 12//10 14//10
f 1//10 14//10 16//10
f 15//11 13//11 11//11
f 15//11 11//11 9//11
f 15//12 9//12 7//12
f 15//12 7//12 5//12
f 15//12 5//12 3//12
f 15//12 3//12 2//12
f 2//1 17//1 18//1
f 2//1 18//1 19//1
f 19//13 18//13 20//13
f 19//13 20//13 21//13
f 21//14 20//14 22//14
f 21//14 22//14 23//14
f 23//15 22//15 24//15
f 23//15 24//15 9//15
f 9//5 24//5 25//5
f 9//5 25//5 26//5
f 26//16 25//16 27//16
f 26//16 27//16 28//16
f 28//17 27//17 29//17
f 28//17 29//17 30//17
f 30//18 29//18 17//18
f 30//18 17//18 2//18
f 2//19 19//19 21//19
f 2//20 21//20 23//20
f 2//20 23//20 9//20
f 2//20 9//20 26//20
f 2//20 26//20 28//20
f 2//20 28//20 30//20
f 29//21 27//21 25//21
f 29//21 25//21 24//21
f 29//21 24//21 22//21
f 29//21 22//21 20//21
f 29//21 20//21 18//21
f 29//21 18//21 17//21
f 17//1 1//1 31//1
f 17//1 31//1 32//1
f 32//22 31//22 33//22
f 32//22 33//22 34//22
f 34//23 33//23 35//23
f 34//23 35//23 36//23
f 36//24 35//24 10//24
f 36//24 10//24 24//24
f 24//5 10//5 37//5
f 24//5 37//5 38//5
f 38//25 37//25 39//25
f 38//25 39//25 40//25
f 40//26 39//26 41//26
f 40//26 41//26 42//26
f 42//27 41//27 1//27
f 42//27 1//27 17//27
f 17//28 32//28 34//28
f 17//28 34//28 36//28
f 17//28 36//28 24//28
f 17//29 24//29 38//29
f 17//29 38//29 40//29
f 17//29 40//29 42//29
f 41//30 39//30 37//30
f 41//30 37//30 10//30
f 41//31 10//31 35//31
f 41//30 35//30 33//30
f 41//30 33//30 31//30
f 41//30 31//30 1//30
f 43//32 44//32 45//32
f 43//32 45//32 46//32
f 46//33 45//33 47//33
f 46//33 47//33 48//33
f 48//21 47//21 49//21
f 48//21 49//21 50//21
f 50//34 49//34 51//34
f 50//34 51//34 52//34
f 52//35 51//35 53//35
f 52//35 53//35 54//35
f 54//36 53//36 55//36
f 54//36 55//36 56//36
f 56//20 55//20 57//20
f 56//20 57//20 58//20
f 58//37 57//37 44//37
f 58//37 44//37 43//37
f 43//38 46//38 48//38
f 43//38 48//38 50//38
f 43//38 50//38 52//38
f 43//38 52//38 54//38
f 43//38 54//38 56//38
f 43//38 56//38 58//38
f 57//39 55//39 53//39
f 57//39 53//39 51//39
f 57//39 51//39 49//39
f 57//39 49//39 47//39
f 57//39 47//39 45//39
f 57//39 45//39 44//39
f 59//40 60//40 61//40
f 59//40 61//40 62//40
f 62//41 61//41 63//41
f 62//41 63//41 64//41
f 64//29 63//29 65//29
f 64//29 65//29 66//29
f 66//42 65//42 67//42
f 66//42 67//42 68//42
f 68//43 67//43 69//43
f 68//43 69//43 70//43
f 70//44 69//44 71//44
f 70//44 71//44 72//44
f 72//31 71//31 73//31
f 72//31 73//31 74//31
f 74//45 73//45 60//45
f 74//45 60//45 59//45
f 59//46 62//46 64//46
f 59//46 64//46 66//46
f 59//46 66//46 68//46
f 59//47 68//47 70//47
f 59//47 70//47 72//47
f 59//46 72//46 74//46
f 73//48 71//48 69//48
f 73//48 69//48 67//48
f 73//48 67//48 65//48
f 73//48 65//48 63//48
f 73//48 63//48 61//48
f 73//48 61//48 60//48
f 60//40 59//40 74//40
f 60//40 74//40 73//40
f 73//45 74//45 72//45
f 73//45 72//45 71//45
f 71//31 72//31 70//31
f 71//31 70//31 69//31
f 69//44 70//44 68//44
f 69//44 68//44 67//44
f 67//43 68//43 66//43
f 67//43 66//43 65//43
f 65//42 66//42 64//42
f 65//42 64//42 63//42
f 63//29 64//29 62//29
f 63//29 62//29 61//29
f 61//41 62//41 59//41
f 61//41 59//41 60//41
f 60//48 73//48 71//48
f 60//48 71//48 69//48
f 60//48 69//48 67//48
f 60//48 67//48 65//48
f 60//48 65//48 63//48
f 60//48 63//48 61//48
f 62//46 64//46 66//46
f 62//46 66//46 68//46
f 62//47 68//47 70//47
f 62//47 70//47 72//47
f 62//46 72//46 74//46
f 62//47 74//47 59//47
f 75//49 76//49 77//49
f 75//49 77//49 78//49
f 78//50 77//50 79//50
f 78//50 79//50 80//50
f 80//9 79//9 81//9
f 80//9 81//9 82//9
f 82//51 81//51 83//51
f 82//51 83//51 84//51
f 84//52 83//52 85//52
f 84//52 85//52 86//52
f 86//53 85//53 87//53
f 86//53 87//53 88//53
f 88//11 87//11 89//11
f 88//11 89//11 90//11
f 90//54 89//54 76//54
f 90//54 76//54 75//54
f 75//55 78//55 80//55
f 75//56 80//56 82//56
f 75//56 82//56 84//56
f 75//55 84//55 86//55
f 75//55 86//55 88//55
f 75//55 88//55 90//55
f 89//57 87//57 85//57
f 89//57 85//57 83//57
f 89//57 83//57 81//57
f 89//57 81//57 79//57
f 89//57 79//57 77//57
f 89//57 77//57 76//57
f 76//49 75//49 90//49
f 76//49 90//49 89//49
f 89//54 90//54 88//54
f 89//54 88//54 87//54
f 87//11 88//11 86//11
f 87//11 86//11 85//11
f 85//53 86//53 84//53
f 85//53 84//53 83//53
f 83//52 84//52 82//52
f 83//52 82//52 81//52
f 81//51 82//51 80//51
f 81//51 80//51 79//51
f 79//9 80//9 78//9
f 79//9 78//9 77//9
f 77//50 78//50 75//50
f 77//50 75//50 76//50
f 76//57 89//57 87//57
f 76//57 87//57 85//57
f 76//57 85//57 83//57
f 76//57 83//57 81//57
f 76//57 81//57 79//57
f 76//57 79//57 77//57
f 78//56 80//56 82//56
f 78//56 82//56 84//56
f 78//55 84//55 86//55
f 78//55 86//55 88//55
f 78//55 88//55 90//55
f 78//56 90//56 75//56
f 44//32 43//32 58//32
f 44//32 58//32 57//32
f 57//37 58//37 56//37
f 57//37 56//37 55//37
f 55//20 56//20 54//20
f 55//20 54//20 53//20
f 53//36 54//36 52//36
f 53//36 52//36 51//36
f 51//35 52//35 50//35
f 51//35 50//35 49//35
f 49//34 50//34 48//34
f 49//34 48//34 47//34
f 47//21 48//21 46//21
f 47//21 46//21 45//21
f 45//33 46//33 43//33
f 45//33 43//33 44//33
f 44//39 57//39 55//39
f 44//39 55//39 53//39
f 44//39 53//39 51//39
f 44//39 51//39 49//39
f 44//39 49//39 47//39
f 44//39 47//39 45//39
f 46//38 48//38 50//38
f 46//38 50//38 52//38
f 46//38 52//38 54//38
f 46//38 54//38 56//38
f 46//38 56//38 58//38
f 46//38 58//38 43//38
f 91//1 92//1 93//1
f 94//5 95//5 96//5
f 91//7 94//7 96//7
f 91//7 96//7 92//7
f 92//17 96//17 95//17
f 92//17 95//17 93//17
f 93//26 95//26 94//26
f 93//26 94//26 91//26
f 97//58 98//58 99//58
f 100//59 101//59 102//59
f 97//60 100//60 102//60
f 97//60 102//60 98//60
f 98//61 102//61 101//61
f 98//61 101//61 99//61
f 99//62 101//62 100//62
f 99//62 100//62 97//62
f 103//63 104//63 105//63
f 106//64 107//64 108//64
f 103//65 106//65 108//65
f 103//65 108//65 104//65
f 104//66 108//66 107//66
f 104//66 107//66 105//66
f 105//67 107//67 106//67
f 105//67 106//67 103//67
f 109//68 110//68 111//68
f 112//69 113//69 114//69
f 109//70 112//70 114//70
f 109//70 114//70 110//70
f 110//71 114//71 113//71
f 110//71 113//71 111//71
f 111//72 113//72 112//72
f 111//72 112//72 109//72
# Vertices: 114, normals: 72, texture coordinates: 0, faces: 284

