# File generated by ImageToStl.com - Free Image and 3D model conversion tools

o obj1
v 0 0 0.25
v 39.99 0 0.25
v 39.99 0.17 0.17
v 0 0.17 0.17
v 39.99 0.25 0
v 0 0.25 0
v 39.99 0.17 -0.17
v 0 0.17 -0.17
v 39.99 0 -0.25
v 0 0 -0.25
v 39.99 -0.17 -0.17
v 0 -0.17 -0.17
v 39.99 -0.25 0
v 0 -0.25 0
v 39.99 -0.17 0.17
v 0 -0.17 0.17
v 20.1 0 33.46
v -0.21 0 0.13
v -0.15 -0.17 0.09
v 20.16 -0.17 33.42
v 20.31 -0.25 33.33
v 0.15 -0.17 -0.09
v 20.46 -0.17 33.24
v 0.21 0 -0.13
v 20.52 0 33.2
v 0.15 0.17 -0.09
v 20.46 0.17 33.24
v 20.31 0.25 33.33
v -0.15 0.17 0.09
v 20.16 0.17 33.42
v 0 39.99 -0.25
v 0.17 39.99 -0.17
v 0.17 0 -0.17
v 0.25 39.99 0
v 0.25 0 0
v 0.17 39.99 0.17
v 0.17 0 0.17
v 0 39.99 0.25
v -0.17 39.99 0.17
v -0.17 0 0.17
v -0.25 39.99 0
v -0.25 0 0
v -0.17 39.99 -0.17
v -0.17 0 -0.17
v -0.21 39.99 0.13
v 20.1 39.99 33.46
v 20.16 40.17 33.42
v -0.15 40.17 0.09
v 20.31 40.24 33.33
v 0 40.24 0
v 20.46 40.17 33.24
v 0.15 40.17 -0.09
v 20.52 39.99 33.2
v 0.21 39.99 -0.13
v 20.46 39.82 33.24
v 0.15 39.82 -0.09
v 20.31 39.75 33.33
v 0 39.75 0
v 20.16 39.82 33.42
v -0.15 39.82 0.09
v 20.31 39.99 33.58
v 20.31 0 33.58
v 20.49 0 33.51
v 20.49 39.99 33.51
v 20.56 0 33.33
v 20.56 39.99 33.33
v 20.49 0 33.15
v 20.49 39.99 33.15
v 20.31 0 33.08
v 20.31 39.99 33.08
v 20.13 0 33.15
v 20.13 39.99 33.15
v 20.06 0 33.33
v 20.06 39.99 33.33
v 20.13 0 33.51
v 20.13 39.99 33.51
v 20.53 0 33.46
v 40.21 0 0.12
v 40.15 0.17 0.08
v 20.46 0.17 33.42
v 39.84 0.17 -0.08
v 20.16 0.17 33.24
v 39.78 0 -0.12
v 20.1 0 33.2
v 39.84 -0.17 -0.08
v 20.16 -0.17 33.24
v 40.15 -0.17 0.08
v 20.46 -0.17 33.42
v 39.99 39.99 -0.25
v 40.17 39.99 -0.17
v 40.17 0 -0.17
v 40.24 39.99 0
v 40.24 0 0
v 40.17 39.99 0.17
v 40.17 0 0.17
v 39.99 39.99 0.25
v 39.82 39.99 0.17
v 39.82 0 0.17
v 39.75 39.99 0
v 39.75 0 0
v 39.82 39.99 -0.17
v 39.82 0 -0.17
v 40.21 39.99 0.12
v 20.53 39.99 33.46
v 20.46 39.82 33.42
v 40.15 39.82 0.08
v 39.99 39.75 0
v 20.16 39.82 33.24
v 39.84 39.82 -0.08
v 20.1 39.99 33.2
v 39.78 39.99 -0.12
v 20.16 40.17 33.24
v 39.84 40.17 -0.08
v 39.99 40.24 0
v 20.46 40.17 33.42
v 40.15 40.17 0.08
v 0 39.82 0.17
v 39.99 39.82 0.17
v 0 39.82 -0.17
v 39.99 39.82 -0.17
v 0 40.17 -0.17
v 39.99 40.17 -0.17
v 0 40.17 0.17
v 39.99 40.17 0.17
v 20.4 0 33.28
v 0.08 0 -0.05
v 0.08 40 -0.05
v 20.23 0 33.38
v -0.08 40 0.05
v -0.08 0 0.05
v 20.4 40 33.28
v 20.23 40 33.38
v 20.4 0 33.38
v 40.08 0 0.05
v 40.08 40 0.05
v 20.22 0 33.28
v 39.91 40 -0.05
v 39.91 0 -0.05
v 20.4 40 33.38
v 20.22 40 33.28
v 20.31 -0.09 33.33
v 0 -0.09 0
v 40 -0.09 0
v 20.31 0.09 33.33
v 40 0.09 0
v 0 0.09 0
v 20.31 40.09 33.33
v 40 40.09 0
v 0 40.09 0
v 20.31 39.9 33.33
v 0 39.9 0
v 40 39.9 0
v 0 0 -0.09
v 0 40 -0.09
v 40 40 -0.09
v 0 0 0.09
v 40 40 0.09
v 0 40 0.09
v 40 0 -0.09
v 40 0 0.09
vn 0 0 1
vn 0 0.7 0.7
vn 0 1 0
vn 0 0.7 -0.7
vn 0 0 -1
vn 0 -0.7 -0.7
vn 0 -1 -0
vn 0 -0.7 0.7
vn -0.99 0 0
vn -1 0 0
vn 0.99 0 0
vn 1 0 0
vn -0.85 0 0.52
vn -0.6 -0.7 0.36
vn 0.6 -0.7 -0.36
vn 0.85 -0 -0.52
vn 0.6 0.7 -0.36
vn -0.6 0.7 0.36
vn 0.52 -0 0.85
vn -0.52 -0 -0.85
vn 0.7 0 -0.7
vn 0.7 0 0.7
vn -0.7 0 0.7
vn -0.7 0 -0.7
vn 0 -0.99 0
vn 0 0.99 0
vn 0.86 0 0.5
vn 0.6 0.7 0.35
vn -0.6 0.7 -0.35
vn -0.86 0 -0.5
vn -0.6 -0.7 -0.35
vn 0.6 -0.7 0.35
vn -0.5 -0 0.86
vn 0.5 0 -0.86
f 1//1 2//1 3//1
f 1//1 3//1 4//1
f 4//2 3//2 5//2
f 4//2 5//2 6//2
f 6//3 5//3 7//3
f 6//3 7//3 8//3
f 8//4 7//4 9//4
f 8//4 9//4 10//4
f 10//5 9//5 11//5
f 10//5 11//5 12//5
f 12//6 11//6 13//6
f 12//6 13//6 14//6
f 14//7 13//7 15//7
f 14//7 15//7 16//7
f 16//8 15//8 2//8
f 16//8 2//8 1//8
f 1//9 4//9 6//9
f 1//10 6//10 8//10
f 1//10 8//10 10//10
f 1//10 10//10 12//10
f 1//10 12//10 14//10
f 1//10 14//10 16//10
f 15//11 13//11 11//11
f 15//12 11//12 9//12
f 15//12 9//12 7//12
f 15//12 7//12 5//12
f 15//12 5//12 3//12
f 15//11 3//11 2//11
f 17//13 18//13 19//13
f 17//13 19//13 20//13
f 20//14 19//14 14//14
f 20//14 14//14 21//14
f 21//7 14//7 22//7
f 21//7 22//7 23//7
f 23//15 22//15 24//15
f 23//15 24//15 25//15
f 25//16 24//16 26//16
f 25//16 26//16 27//16
f 27//17 26//17 6//17
f 27//17 6//17 28//17
f 28//3 6//3 29//3
f 28//3 29//3 30//3
f 30//18 29//18 18//18
f 30//18 18//18 17//18
f 17//19 20//19 21//19
f 17//19 21//19 23//19
f 17//19 23//19 25//19
f 17//19 25//19 27//19
f 17//19 27//19 28//19
f 17//19 28//19 30//19
f 29//20 6//20 26//20
f 29//20 26//20 24//20
f 29//20 24//20 22//20
f 29//20 22//20 14//20
f 29//20 14//20 19//20
f 29//20 19//20 18//20
f 10//5 31//5 32//5
f 10//5 32//5 33//5
f 33//21 32//21 34//21
f 33//21 34//21 35//21
f 35//12 34//12 36//12
f 35//12 36//12 37//12
f 37//22 36//22 38//22
f 37//22 38//22 1//22
f 1//1 38//1 39//1
f 1//1 39//1 40//1
f 40//23 39//23 41//23
f 40//23 41//23 42//23
f 42//10 41//10 43//10
f 42//10 43//10 44//10
f 44//24 43//24 31//24
f 44//24 31//24 10//24
f 10//25 33//25 35//25
f 10//7 35//7 37//7
f 10//7 37//7 1//7
f 10//7 1//7 40//7
f 10//7 40//7 42//7
f 10//7 42//7 44//7
f 43//26 41//26 39//26
f 43//3 39//3 38//3
f 43//3 38//3 36//3
f 43//3 36//3 34//3
f 43//3 34//3 32//3
f 43//26 32//26 31//26
f 45//13 46//13 47//13
f 45//13 47//13 48//13
f 48//18 47//18 49//18
f 48//18 49//18 50//18
f 50//3 49//3 51//3
f 50//3 51//3 52//3
f 52//17 51//17 53//17
f 52//17 53//17 54//17
f 54//16 53//16 55//16
f 54//16 55//16 56//16
f 56//15 55//15 57//15
f 56//15 57//15 58//15
f 58//7 57//7 59//7
f 58//7 59//7 60//7
f 60//14 59//14 46//14
f 60//14 46//14 45//14
f 45//20 48//20 50//20
f 45//20 50//20 52//20
f 45//20 52//20 54//20
f 45//20 54//20 56//20
f 45//20 56//20 58//20
f 45//20 58//20 60//20
f 59//19 57//19 55//19
f 59//19 55//19 53//19
f 59//19 53//19 51//19
f 59//19 51//19 49//19
f 59//19 49//19 47//19
f 59//19 47//19 46//19
f 61//1 62//1 63//1
f 61//1 63//1 64//1
f 64//22 63//22 65//22
f 64//22 65//22 66//22
f 66//12 65//12 67//12
f 66//12 67//12 68//12
f 68//21 67//21 69//21
f 68//21 69//21 70//21
f 70//5 69//5 71//5
f 70//5 71//5 72//5
f 72//24 71//24 73//24
f 72//24 73//24 74//24
f 74//10 73//10 75//10
f 74//10 75//10 76//10
f 76//23 75//23 62//23
f 76//23 62//23 61//23
f 61//3 64//3 66//3
f 61//3 66//3 68//3
f 61//26 68//26 70//26
f 61//26 70//26 72//26
f 61//3 72//3 74//3
f 61//26 74//26 76//26
f 75//7 73//7 71//7
f 75//7 71//7 69//7
f 75//25 69//25 67//25
f 75//7 67//7 65//7
f 75//7 65//7 63//7
f 75//7 63//7 62//7
f 77//27 78//27 79//27
f 77//27 79//27 80//27
f 80//28 79//28 5//28
f 80//28 5//28 28//28
f 28//3 5//3 81//3
f 28//3 81//3 82//3
f 82//29 81//29 83//29
f 82//29 83//29 84//29
f 84//30 83//30 85//30
f 84//30 85//30 86//30
f 86//31 85//31 13//31
f 86//31 13//31 21//31
f 21//7 13//7 87//7
f 21//7 87//7 88//7
f 88//32 87//32 78//32
f 88//32 78//32 77//32
f 77//33 80//33 28//33
f 77//33 28//33 82//33
f 77//33 82//33 84//33
f 77//33 84//33 86//33
f 77//33 86//33 21//33
f 77//33 21//33 88//33
f 87//34 13//34 85//34
f 87//34 85//34 83//34
f 87//34 83//34 81//34
f 87//34 81//34 5//34
f 87//34 5//34 79//34
f 87//34 79//34 78//34
f 9//5 89//5 90//5
f 9//5 90//5 91//5
f 91//21 90//21 92//21
f 91//21 92//21 93//21
f 93//12 92//12 94//12
f 93//12 94//12 95//12
f 95//22 94//22 96//22
f 95//22 96//22 2//22
f 2//1 96//1 97//1
f 2//1 97//1 98//1
f 98//23 97//23 99//23
f 98//23 99//23 100//23
f 100//10 99//10 101//10
f 100//10 101//10 102//10
f 102//24 101//24 89//24
f 102//24 89//24 9//24
f 9//7 91//7 93//7
f 9//7 93//7 95//7
f 9//7 95//7 2//7
f 9//7 2//7 98//7
f 9//7 98//7 100//7
f 9//7 100//7 102//7
f 101//26 99//26 97//26
f 101//3 97//3 96//3
f 101//3 96//3 94//3
f 101//3 94//3 92//3
f 101//3 92//3 90//3
f 101//3 90//3 89//3
f 103//27 104//27 105//27
f 103//27 105//27 106//27
f 106//32 105//32 57//32
f 106//32 57//32 107//32
f 107//7 57//7 108//7
f 107//7 108//7 109//7
f 109//31 108//31 110//31
f 109//31 110//31 111//31
f 111//30 110//30 112//30
f 111//30 112//30 113//30
f 113//29 112//29 49//29
f 113//29 49//29 114//29
f 114//3 49//3 115//3
f 114//3 115//3 116//3
f 116//28 115//28 104//28
f 116//28 104//28 103//28
f 103//34 106//34 107//34
f 103//34 107//34 109//34
f 103//34 109//34 111//34
f 103//34 111//34 113//34
f 103//34 113//34 114//34
f 103//34 114//34 116//34
f 115//33 49//33 112//33
f 115//33 112//33 110//33
f 115//33 110//33 108//33
f 115//33 108//33 57//33
f 115//33 57//33 105//33
f 115//33 105//33 104//33
f 61//1 62//1 63//1
f 61//1 63//1 64//1
f 64//22 63//22 65//22
f 64//22 65//22 66//22
f 66//12 65//12 67//12
f 66//12 67//12 68//12
f 68//21 67//21 69//21
f 68//21 69//21 70//21
f 70//5 69//5 71//5
f 70//5 71//5 72//5
f 72//24 71//24 73//24
f 72//24 73//24 74//24
f 74//10 73//10 75//10
f 74//10 75//10 76//10
f 76//23 75//23 62//23
f 76//23 62//23 61//23
f 61//3 64//3 66//3
f 61//3 66//3 68//3
f 61//26 68//26 70//26
f 61//26 70//26 72//26
f 61//3 72//3 74//3
f 61//26 74//26 76//26
f 75//7 73//7 71//7
f 75//7 71//7 69//7
f 75//25 69//25 67//25
f 75//7 67//7 65//7
f 75//7 65//7 63//7
f 75//7 63//7 62//7
f 17//13 18//13 19//13
f 17//13 19//13 20//13
f 20//14 19//14 14//14
f 20//14 14//14 21//14
f 21//7 14//7 22//7
f 21//7 22//7 23//7
f 23//15 22//15 24//15
f 23//15 24//15 25//15
f 25//16 24//16 26//16
f 25//16 26//16 27//16
f 27//17 26//17 6//17
f 27//17 6//17 28//17
f 28//3 6//3 29//3
f 28//3 29//3 30//3
f 30//18 29//18 18//18
f 30//18 18//18 17//18
f 17//19 20//19 21//19
f 17//19 21//19 23//19
f 17//19 23//19 25//19
f 17//19 25//19 27//19
f 17//19 27//19 28//19
f 17//19 28//19 30//19
f 29//20 6//20 26//20
f 29//20 26//20 24//20
f 29//20 24//20 22//20
f 29//20 22//20 14//20
f 29//20 14//20 19//20
f 29//20 19//20 18//20
f 1//1 2//1 3//1
f 1//1 3//1 4//1
f 4//2 3//2 5//2
f 4//2 5//2 6//2
f 6//3 5//3 7//3
f 6//3 7//3 8//3
f 8//4 7//4 9//4
f 8//4 9//4 10//4
f 10//5 9//5 11//5
f 10//5 11//5 12//5
f 12//6 11//6 13//6
f 12//6 13//6 14//6
f 14//7 13//7 15//7
f 14//7 15//7 16//7
f 16//8 15//8 2//8
f 16//8 2//8 1//8
f 1//9 4//9 6//9
f 1//10 6//10 8//10
f 1//10 8//10 10//10
f 1//10 10//10 12//10
f 1//10 12//10 14//10
f 1//10 14//10 16//10
f 15//11 13//11 11//11
f 15//12 11//12 9//12
f 15//12 9//12 7//12
f 15//12 7//12 5//12
f 15//12 5//12 3//12
f 15//11 3//11 2//11
f 78//27 77//27 88//27
f 78//27 88//27 87//27
f 87//32 88//32 21//32
f 87//32 21//32 13//32
f 13//7 21//7 86//7
f 13//7 86//7 85//7
f 85//31 86//31 84//31
f 85//31 84//31 83//31
f 83//30 84//30 82//30
f 83//30 82//30 81//30
f 81//29 82//29 28//29
f 81//29 28//29 5//29
f 5//3 28//3 80//3
f 5//3 80//3 79//3
f 79//28 80//28 77//28
f 79//28 77//28 78//28
f 78//34 87//34 13//34
f 78//34 13//34 85//34
f 78//34 85//34 83//34
f 78//34 83//34 81//34
f 78//34 81//34 5//34
f 78//34 5//34 79//34
f 80//33 28//33 82//33
f 80//33 82//33 84//33
f 80//33 84//33 86//33
f 80//33 86//33 21//33
f 80//33 21//33 88//33
f 80//33 88//33 77//33
f 104//27 103//27 116//27
f 104//27 116//27 115//27
f 115//28 116//28 114//28
f 115//28 114//28 49//28
f 49//3 114//3 113//3
f 49//3 113//3 112//3
f 112//29 113//29 111//29
f 112//29 111//29 110//29
f 110//30 111//30 109//30
f 110//30 109//30 108//30
f 108//31 109//31 107//31
f 108//31 107//31 57//31
f 57//7 107//7 106//7
f 57//7 106//7 105//7
f 105//32 106//32 103//32
f 105//32 103//32 104//32
f 104//33 115//33 49//33
f 104//33 49//33 112//33
f 104//33 112//33 110//33
f 104//33 110//33 108//33
f 104//33 108//33 57//33
f 104//33 57//33 105//33
f 106//34 107//34 109//34
f 106//34 109//34 111//34
f 106//34 111//34 113//34
f 106//34 113//34 114//34
f 106//34 114//34 116//34
f 106//34 116//34 103//34
f 96//1 38//1 117//1
f 96//1 117//1 118//1
f 118//8 117//8 58//8
f 118//8 58//8 107//8
f 107//7 58//7 119//7
f 107//7 119//7 120//7
f 120//6 119//6 31//6
f 120//6 31//6 89//6
f 89//5 31//5 121//5
f 89//5 121//5 122//5
f 122//4 121//4 50//4
f 122//4 50//4 114//4
f 114//3 50//3 123//3
f 114//3 123//3 124//3
f 124//2 123//2 38//2
f 124//2 38//2 96//2
f 96//12 118//12 107//12
f 96//12 107//12 120//12
f 96//12 120//12 89//12
f 96//12 89//12 122//12
f 96//12 122//12 114//12
f 96//12 114//12 124//12
f 123//9 50//9 121//9
f 123//10 121//10 31//10
f 123//10 31//10 119//10
f 123//10 119//10 58//10
f 123//10 58//10 117//10
f 123//10 117//10 38//10
f 45//13 46//13 47//13
f 45//13 47//13 48//13
f 48//18 47//18 49//18
f 48//18 49//18 50//18
f 50//3 49//3 51//3
f 50//3 51//3 52//3
f 52//17 51//17 53//17
f 52//17 53//17 54//17
f 54//16 53//16 55//16
f 54//16 55//16 56//16
f 56//15 55//15 57//15
f 56//15 57//15 58//15
f 58//7 57//7 59//7
f 58//7 59//7 60//7
f 60//14 59//14 46//14
f 60//14 46//14 45//14
f 45//20 48//20 50//20
f 45//20 50//20 52//20
f 45//20 52//20 54//20
f 45//20 54//20 56//20
f 45//20 56//20 58//20
f 45//20 58//20 60//20
f 59//19 57//19 55//19
f 59//19 55//19 53//19
f 59//19 53//19 51//19
f 59//19 51//19 49//19
f 59//19 49//19 47//19
f 59//19 47//19 46//19
f 10//5 31//5 32//5
f 10//5 32//5 33//5
f 33//21 32//21 34//21
f 33//21 34//21 35//21
f 35//12 34//12 36//12
f 35//12 36//12 37//12
f 37//22 36//22 38//22
f 37//22 38//22 1//22
f 1//1 38//1 39//1
f 1//1 39//1 40//1
f 40//23 39//23 41//23
f 40//23 41//23 42//23
f 42//10 41//10 43//10
f 42//10 43//10 44//10
f 44//24 43//24 31//24
f 44//24 31//24 10//24
f 10//25 33//25 35//25
f 10//7 35//7 37//7
f 10//7 37//7 1//7
f 10//7 1//7 40//7
f 10//7 40//7 42//7
f 10//7 42//7 44//7
f 43//26 41//26 39//26
f 43//3 39//3 38//3
f 43//3 38//3 36//3
f 43//3 36//3 34//3
f 43//3 34//3 32//3
f 43//26 32//26 31//26
f 38//1 96//1 124//1
f 38//1 124//1 123//1
f 123//2 124//2 114//2
f 123//2 114//2 50//2
f 50//3 114//3 122//3
f 50//3 122//3 121//3
f 121//4 122//4 89//4
f 121//4 89//4 31//4
f 31//5 89//5 120//5
f 31//5 120//5 119//5
f 119//6 120//6 107//6
f 119//6 107//6 58//6
f 58//7 107//7 118//7
f 58//7 118//7 117//7
f 117//8 118//8 96//8
f 117//8 96//8 38//8
f 38//10 123//10 50//10
f 38//10 50//10 121//10
f 38//10 121//10 31//10
f 38//10 31//10 119//10
f 38//10 119//10 58//10
f 38//10 58//10 117//10
f 118//11 107//11 120//11
f 118//12 120//12 89//12
f 118//12 89//12 122//12
f 118//12 122//12 114//12
f 118//12 114//12 124//12
f 118//12 124//12 96//12
f 96//1 2//1 95//1
f 96//1 95//1 94//1
f 94//22 95//22 93//22
f 94//22 93//22 92//22
f 92//12 93//12 91//12
f 92//12 91//12 90//12
f 90//21 91//21 9//21
f 90//21 9//21 89//21
f 89//5 9//5 102//5
f 89//5 102//5 101//5
f 101//24 102//24 100//24
f 101//24 100//24 99//24
f 99//10 100//10 98//10
f 99//10 98//10 97//10
f 97//23 98//23 2//23
f 97//23 2//23 96//23
f 96//3 94//3 92//3
f 96//3 92//3 90//3
f 96//3 90//3 89//3
f 96//3 89//3 101//3
f 96//3 101//3 99//3
f 96//3 99//3 97//3
f 98//25 100//25 102//25
f 98//7 102//7 9//7
f 98//7 9//7 91//7
f 98//7 91//7 93//7
f 98//7 93//7 95//7
f 98//7 95//7 2//7
f 2//1 1//1 16//1
f 2//1 16//1 15//1
f 15//8 16//8 14//8
f 15//8 14//8 13//8
f 13//7 14//7 12//7
f 13//7 12//7 11//7
f 11//6 12//6 10//6
f 11//6 10//6 9//6
f 9//5 10//5 8//5
f 9//5 8//5 7//5
f 7//4 8//4 6//4
f 7//4 6//4 5//4
f 5//3 6//3 4//3
f 5//3 4//3 3//3
f 3//2 4//2 1//2
f 3//2 1//2 2//2
f 2//11 15//11 13//11
f 2//12 13//12 11//12
f 2//12 11//12 9//12
f 2//12 9//12 7//12
f 2//12 7//12 5//12
f 2//12 5//12 3//12
f 4//9 6//9 8//9
f 4//10 8//10 10//10
f 4//10 10//10 12//10
f 4//10 12//10 14//10
f 4//10 14//10 16//10
f 4//9 16//9 1//9
f 125//16 126//16 127//16
f 128//13 129//13 130//13
f 125//16 127//16 131//16
f 128//13 132//13 129//13
f 125//7 128//7 130//7
f 125//25 130//25 126//25
f 126//20 130//20 129//20
f 126//20 129//20 127//20
f 127//3 129//3 132//3
f 127//26 132//26 131//26
f 131//19 132//19 128//19
f 131//19 128//19 125//19
f 133//27 134//27 135//27
f 136//30 137//30 138//30
f 133//27 135//27 139//27
f 136//30 140//30 137//30
f 133//7 136//7 138//7
f 133//7 138//7 134//7
f 134//34 138//34 137//34
f 134//34 137//34 135//34
f 135//3 137//3 140//3
f 135//26 140//26 139//26
f 139//33 140//33 136//33
f 139//33 136//33 133//33
f 141//7 142//7 143//7
f 144//3 145//3 146//3
f 141//13 144//13 146//13
f 141//13 146//13 142//13
f 142//5 146//5 145//5
f 142//5 145//5 143//5
f 143//27 145//27 144//27
f 143//27 144//27 141//27
f 147//3 148//3 149//3
f 150//7 151//7 152//7
f 147//27 150//27 152//27
f 147//27 152//27 148//27
f 148//5 152//5 151//5
f 148//5 151//5 149//5
f 149//13 151//13 150//13
f 149//13 150//13 147//13
f 153//5 154//5 155//5
f 156//1 157//1 158//1
f 153//5 155//5 159//5
f 156//1 160//1 157//1
f 153//10 156//10 158//10
f 153//10 158//10 154//10
f 154//3 158//3 157//3
f 154//3 157//3 155//3
f 155//12 157//12 160//12
f 155//12 160//12 159//12
f 159//7 160//7 156//7
f 159//7 156//7 153//7
# Vertices: 160, normals: 34, texture coordinates: 0, faces: 584

