# File generated by ImageToStl.com - Free Image and 3D model conversion tools

o obj1
v -20 20 -19.94
v -20 -20 -19.94
v -19.96 -20 -19.96
v -19.96 20 -19.96
v -19.94 -20 -20
v -19.94 20 -20
v -19.96 -20 -20.03
v -19.96 20 -20.03
v -20 -20 -20.05
v -20 20 -20.05
v -20.03 -20 -20.03
v -20.03 20 -20.03
v -20.05 -20 -20
v -20.05 20 -20
v -20.03 -20 -19.96
v -20.03 20 -19.96
v 20 -20 -19.94
v 20 -19.96 -19.96
v -20 -19.96 -19.96
v 20 -19.94 -20
v -20 -19.94 -20
v 20 -19.96 -20.03
v -20 -19.96 -20.03
v 20 -20 -20.05
v 20 -20.03 -20.03
v -20 -20.03 -20.03
v 20 -20.05 -20
v -20 -20.05 -20
v 20 -20.03 -19.96
v -20 -20.03 -19.96
v 20 20 -19.94
v -20 19.96 -19.96
v 20 19.96 -19.96
v -20 19.94 -20
v 20 19.94 -20
v -20 19.96 -20.03
v 20 19.96 -20.03
v 20 20 -20.05
v -20 20.03 -20.03
v 20 20.03 -20.03
v -20 20.05 -20
v 20 20.05 -20
v -20 20.03 -19.96
v 20 20.03 -19.96
v 20.03 20 -20.03
v 20.03 -20 -20.03
v 20.05 20 -20
v 20.05 -20 -20
v 20.03 20 -19.96
v 20.03 -20 -19.96
v 19.96 20 -19.96
v 19.96 -20 -19.96
v 19.94 20 -20
v 19.94 -20 -20
v 19.96 20 -20.03
v 19.96 -20 -20.03
v -20 20.05 20
v -19.96 20.03 20
v -19.96 20.03 -20
v -19.94 20 20
v -19.96 19.96 20
v -19.96 19.96 -20
v -20 19.94 20
v -20.03 19.96 20
v -20.03 19.96 -20
v -20.05 20 20
v -20.03 20.03 20
v -20.03 20.03 -20
v -20 20 20.05
v 20 20 20.05
v 20 20.03 20.03
v -20 20.03 20.03
v 20 20.05 20
v 20 20.03 19.96
v -20 20.03 19.96
v 20 20 19.94
v -20 20 19.94
v 20 19.96 19.96
v -20 19.96 19.96
v 20 19.94 20
v 20 19.96 20.03
v -20 19.96 20.03
v 20.03 19.96 -20
v 20.03 19.96 20
v 20.05 20 20
v 20.03 20.03 -20
v 20.03 20.03 20
v 19.96 20.03 -20
v 19.96 20.03 20
v 19.94 20 20
v 19.96 19.96 -20
v 19.96 19.96 20
v -20 -19.94 20
v -19.96 -19.96 20
v -19.96 -19.96 -20
v -19.94 -20 20
v -19.96 -20.03 20
v -19.96 -20.03 -20
v -20 -20.05 20
v -20.03 -20.03 20
v -20.03 -20.03 -20
v -20.05 -20 20
v -20.03 -19.96 20
v -20.03 -19.96 -20
v -20 -20 19.94
v -19.96 20 19.96
v -19.96 -20 19.96
v -19.96 20 20.03
v -19.96 -20 20.03
v -20 -20 20.05
v -20.03 20 20.03
v -20.03 -20 20.03
v -20.03 20 19.96
v -20.03 -20 19.96
v 20 -19.94 20
v 20.03 -19.96 20
v 20.03 -19.96 -20
v 20.05 -20 20
v 20.03 -20.03 20
v 20.03 -20.03 -20
v 20 -20.05 20
v 19.96 -20.03 20
v 19.96 -20.03 -20
v 19.94 -20 20
v 19.96 -19.96 20
v 19.96 -19.96 -20
v 20 -20 20.05
v -20 -20.03 20.03
v 20 -20.03 20.03
v -20 -20.03 19.96
v 20 -20.03 19.96
v 20 -20 19.94
v -20 -19.96 19.96
v 20 -19.96 19.96
v -20 -19.96 20.03
v 20 -19.96 20.03
v 20.03 -20 20.03
v 20.03 20 20.03
v 20.03 -20 19.96
v 20.03 20 19.96
v 19.96 -20 19.96
v 19.96 20 19.96
v 19.96 -20 20.03
v 19.96 20 20.03
v 20 20 -20.1
v -20 20 -20.1
v -20 -20 -20.1
v 20 20 -19.89
v -20 -20 -19.89
v -20 20 -19.89
v 20 -20 -20.1
v 20 -20 -19.89
v 20 19.89 -20
v -20 19.89 -20
v -20 19.89 20
v 20 20.1 -20
v -20 20.1 20
v -20 20.1 -20
v 20 19.89 20
v 20 20.1 20
v -19.89 20 -20
v -19.89 -20 -20
v -19.89 -20 20
v -20.1 20 -20
v -20.1 -20 20
v -20.1 -20 -20
v -19.89 20 20
v -20.1 20 20
v -20 -19.89 -20
v 20 -19.89 -20
v 20 -19.89 20
v -20 -20.1 -20
v 20 -20.1 20
v 20 -20.1 -20
v -20 -19.89 20
v -20 -20.1 20
v 19.89 -20 -20
v 19.89 20 -20
v 19.89 20 20
v 20.1 -20 -20
v 20.1 20 20
v 20.1 20 -20
v 19.89 -20 20
v 20.1 -20 20
v 20 20 19.89
v -20 20 19.89
v -20 -20 19.89
v 20 20 20.1
v -20 -20 20.1
v -20 20 20.1
v 20 -20 19.89
v 20 -20 20.1
vn 0 0 1
vn 0.7 0 0.7
vn 1 0 0
vn 0.7 0 -0.7
vn 0 0 -1
vn -0.7 0 -0.7
vn -1 0 -0
vn -0.7 0 0.7
vn 0 1 0
vn 0 -1 0
vn 0 -0.99 0
vn 0 0.7 0.7
vn 0 0.7 -0.7
vn 0 -0.7 -0.7
vn 0 -0.7 0.7
vn 0.99 0 0
vn -0.99 0 0
vn 0 0.99 0
vn 0.7 0.7 0
vn 0.7 -0.7 0
vn -0.7 -0.7 0
vn -0.7 0.7 0
vn 0 0 0.99
f 1//1 2//1 3//1
f 1//1 3//1 4//1
f 4//2 3//2 5//2
f 4//2 5//2 6//2
f 6//3 5//3 7//3
f 6//3 7//3 8//3
f 8//4 7//4 9//4
f 8//4 9//4 10//4
f 10//5 9//5 11//5
f 10//5 11//5 12//5
f 12//6 11//6 13//6
f 12//6 13//6 14//6
f 14//7 13//7 15//7
f 14//7 15//7 16//7
f 16//8 15//8 2//8
f 16//8 2//8 1//8
f 1//9 4//9 6//9
f 1//9 6//9 8//9
f 1//9 8//9 10//9
f 1//9 10//9 12//9
f 1//9 12//9 14//9
f 1//9 14//9 16//9
f 15//10 13//10 11//10
f 15//10 11//10 9//10
f 15//11 9//11 7//11
f 15//10 7//10 5//10
f 15//10 5//10 3//10
f 15//10 3//10 2//10
f 2//1 17//1 18//1
f 2//1 18//1 19//1
f 19//12 18//12 20//12
f 19//12 20//12 21//12
f 21//9 20//9 22//9
f 21//9 22//9 23//9
f 23//13 22//13 24//13
f 23//13 24//13 9//13
f 9//5 24//5 25//5
f 9//5 25//5 26//5
f 26//14 25//14 27//14
f 26//14 27//14 28//14
f 28//10 27//10 29//10
f 28//10 29//10 30//10
f 30//15 29//15 17//15
f 30//15 17//15 2//15
f 2//7 19//7 21//7
f 2//7 21//7 23//7
f 2//7 23//7 9//7
f 2//7 9//7 26//7
f 2//7 26//7 28//7
f 2//7 28//7 30//7
f 29//3 27//3 25//3
f 29//3 25//3 24//3
f 29//16 24//16 22//16
f 29//3 22//3 20//3
f 29//3 20//3 18//3
f 29//3 18//3 17//3
f 31//1 1//1 32//1
f 31//1 32//1 33//1
f 33//15 32//15 34//15
f 33//15 34//15 35//15
f 35//10 34//10 36//10
f 35//10 36//10 37//10
f 37//14 36//14 10//14
f 37//14 10//14 38//14
f 38//5 10//5 39//5
f 38//5 39//5 40//5
f 40//13 39//13 41//13
f 40//13 41//13 42//13
f 42//9 41//9 43//9
f 42//9 43//9 44//9
f 44//12 43//12 1//12
f 44//12 1//12 31//12
f 31//3 33//3 35//3
f 31//3 35//3 37//3
f 31//3 37//3 38//3
f 31//3 38//3 40//3
f 31//3 40//3 42//3
f 31//3 42//3 44//3
f 43//7 41//7 39//7
f 43//7 39//7 10//7
f 43//17 10//17 36//17
f 43//7 36//7 34//7
f 43//7 34//7 32//7
f 43//7 32//7 1//7
f 24//5 38//5 45//5
f 24//5 45//5 46//5
f 46//4 45//4 47//4
f 46//4 47//4 48//4
f 48//3 47//3 49//3
f 48//3 49//3 50//3
f 50//2 49//2 31//2
f 50//2 31//2 17//2
f 17//1 31//1 51//1
f 17//1 51//1 52//1
f 52//8 51//8 53//8
f 52//8 53//8 54//8
f 54//7 53//7 55//7
f 54//7 55//7 56//7
f 56//6 55//6 38//6
f 56//6 38//6 24//6
f 24//10 46//10 48//10
f 24//10 48//10 50//10
f 24//10 50//10 17//10
f 24//10 17//10 52//10
f 24//10 52//10 54//10
f 24//10 54//10 56//10
f 55//9 53//9 51//9
f 55//9 51//9 31//9
f 55//9 31//9 49//9
f 55//18 49//18 47//18
f 55//9 47//9 45//9
f 55//9 45//9 38//9
f 41//9 57//9 58//9
f 41//9 58//9 59//9
f 59//19 58//19 60//19
f 59//19 60//19 6//19
f 6//3 60//3 61//3
f 6//3 61//3 62//3
f 62//20 61//20 63//20
f 62//20 63//20 34//20
f 34//10 63//10 64//10
f 34//10 64//10 65//10
f 65//21 64//21 66//21
f 65//21 66//21 14//21
f 14//7 66//7 67//7
f 14//7 67//7 68//7
f 68//22 67//22 57//22
f 68//22 57//22 41//22
f 41//5 59//5 6//5
f 41//5 6//5 62//5
f 41//5 62//5 34//5
f 41//5 34//5 65//5
f 41//5 65//5 14//5
f 41//5 14//5 68//5
f 67//1 66//1 64//1
f 67//1 64//1 63//1
f 67//23 63//23 61//23
f 67//23 61//23 60//23
f 67//1 60//1 58//1
f 67//1 58//1 57//1
f 69//1 70//1 71//1
f 69//1 71//1 72//1
f 72//12 71//12 73//12
f 72//12 73//12 57//12
f 57//9 73//9 74//9
f 57//9 74//9 75//9
f 75//13 74//13 76//13
f 75//13 76//13 77//13
f 77//5 76//5 78//5
f 77//5 78//5 79//5
f 79//14 78//14 80//14
f 79//14 80//14 63//14
f 63//10 80//10 81//10
f 63//10 81//10 82//10
f 82//15 81//15 70//15
f 82//15 70//15 69//15
f 69//7 72//7 57//7
f 69//7 57//7 75//7
f 69//7 75//7 77//7
f 69//7 77//7 79//7
f 69//7 79//7 63//7
f 69//7 63//7 82//7
f 81//3 80//3 78//3
f 81//3 78//3 76//3
f 81//3 76//3 74//3
f 81//16 74//16 73//16
f 81//3 73//3 71//3
f 81//3 71//3 70//3
f 80//10 35//10 83//10
f 80//10 83//10 84//10
f 84//20 83//20 47//20
f 84//20 47//20 85//20
f 85//3 47//3 86//3
f 85//3 86//3 87//3
f 87//19 86//19 42//19
f 87//19 42//19 73//19
f 73//9 42//9 88//9
f 73//9 88//9 89//9
f 89//22 88//22 53//22
f 89//22 53//22 90//22
f 90//7 53//7 91//7
f 90//7 91//7 92//7
f 92//21 91//21 35//21
f 92//21 35//21 80//21
f 80//1 84//1 85//1
f 80//1 85//1 87//1
f 80//1 87//1 73//1
f 80//1 73//1 89//1
f 80//1 89//1 90//1
f 80//1 90//1 92//1
f 91//5 53//5 88//5
f 91//5 88//5 42//5
f 91//5 42//5 86//5
f 91//5 86//5 47//5
f 91//5 47//5 83//5
f 91//5 83//5 35//5
f 21//9 93//9 94//9
f 21//9 94//9 95//9
f 95//19 94//19 96//19
f 95//19 96//19 5//19
f 5//3 96//3 97//3
f 5//3 97//3 98//3
f 98//20 97//20 99//20
f 98//20 99//20 28//20
f 28//10 99//10 100//10
f 28//10 100//10 101//10
f 101//21 100//21 102//21
f 101//21 102//21 13//21
f 13//7 102//7 103//7
f 13//7 103//7 104//7
f 104//22 103//22 93//22
f 104//22 93//22 21//22
f 21//5 95//5 5//5
f 21//5 5//5 98//5
f 21//5 98//5 28//5
f 21//5 28//5 101//5
f 21//5 101//5 13//5
f 21//5 13//5 104//5
f 103//1 102//1 100//1
f 103//1 100//1 99//1
f 103//23 99//23 97//23
f 103//1 97//1 96//1
f 103//1 96//1 94//1
f 103//1 94//1 93//1
f 105//5 77//5 106//5
f 105//5 106//5 107//5
f 107//4 106//4 60//4
f 107//4 60//4 96//4
f 96//3 60//3 108//3
f 96//3 108//3 109//3
f 109//2 108//2 69//2
f 109//2 69//2 110//2
f 110//1 69//1 111//1
f 110//1 111//1 112//1
f 112//8 111//8 66//8
f 112//8 66//8 102//8
f 102//7 66//7 113//7
f 102//7 113//7 114//7
f 114//6 113//6 77//6
f 114//6 77//6 105//6
f 105//10 107//10 96//10
f 105//10 96//10 109//10
f 105//10 109//10 110//10
f 105//10 110//10 112//10
f 105//10 112//10 102//10
f 105//10 102//10 114//10
f 113//9 66//9 111//9
f 113//9 111//9 69//9
f 113//18 69//18 108//18
f 113//9 108//9 60//9
f 113//9 60//9 106//9
f 113//9 106//9 77//9
f 20//9 115//9 116//9
f 20//9 116//9 117//9
f 117//19 116//19 118//19
f 117//19 118//19 48//19
f 48//3 118//3 119//3
f 48//3 119//3 120//3
f 120//20 119//20 121//20
f 120//20 121//20 27//20
f 27//10 121//10 122//10
f 27//10 122//10 123//10
f 123//21 122//21 124//21
f 123//21 124//21 54//21
f 54//7 124//7 125//7
f 54//7 125//7 126//7
f 126//22 125//22 115//22
f 126//22 115//22 20//22
f 20//5 117//5 48//5
f 20//5 48//5 120//5
f 20//5 120//5 27//5
f 20//5 27//5 123//5
f 20//5 123//5 54//5
f 20//5 54//5 126//5
f 125//1 124//1 122//1
f 125//1 122//1 121//1
f 125//1 121//1 119//1
f 125//1 119//1 118//1
f 125//1 118//1 116//1
f 125//1 116//1 115//1
f 127//1 110//1 128//1
f 127//1 128//1 129//1
f 129//15 128//15 99//15
f 129//15 99//15 121//15
f 121//10 99//10 130//10
f 121//10 130//10 131//10
f 131//14 130//14 105//14
f 131//14 105//14 132//14
f 132//5 105//5 133//5
f 132//5 133//5 134//5
f 134//13 133//13 93//13
f 134//13 93//13 115//13
f 115//9 93//9 135//9
f 115//9 135//9 136//9
f 136//12 135//12 110//12
f 136//12 110//12 127//12
f 127//3 129//3 121//3
f 127//3 121//3 131//3
f 127//3 131//3 132//3
f 127//3 132//3 134//3
f 127//3 134//3 115//3
f 127//3 115//3 136//3
f 135//7 93//7 133//7
f 135//7 133//7 105//7
f 135//7 105//7 130//7
f 135//17 130//17 99//17
f 135//7 99//7 128//7
f 135//7 128//7 110//7
f 70//1 127//1 137//1
f 70//1 137//1 138//1
f 138//2 137//2 118//2
f 138//2 118//2 85//2
f 85//3 118//3 139//3
f 85//3 139//3 140//3
f 140//4 139//4 132//4
f 140//4 132//4 76//4
f 76//5 132//5 141//5
f 76//5 141//5 142//5
f 142//6 141//6 124//6
f 142//6 124//6 90//6
f 90//7 124//7 143//7
f 90//7 143//7 144//7
f 144//8 143//8 127//8
f 144//8 127//8 70//8
f 70//9 138//9 85//9
f 70//9 85//9 140//9
f 70//9 140//9 76//9
f 70//9 76//9 142//9
f 70//9 142//9 90//9
f 70//9 90//9 144//9
f 143//10 124//10 141//10
f 143//10 141//10 132//10
f 143//10 132//10 139//10
f 143//11 139//11 118//11
f 143//10 118//10 137//10
f 143//10 137//10 127//10
f 145//1 146//1 147//1
f 148//5 149//5 150//5
f 145//1 147//1 151//1
f 148//5 152//5 149//5
f 145//10 148//10 150//10
f 145//10 150//10 146//10
f 146//3 150//3 149//3
f 146//3 149//3 147//3
f 147//9 149//9 152//9
f 147//9 152//9 151//9
f 151//7 152//7 148//7
f 151//7 148//7 145//7
f 153//9 154//9 155//9
f 156//10 157//10 158//10
f 153//9 155//9 159//9
f 156//10 160//10 157//10
f 153//1 156//1 158//1
f 153//1 158//1 154//1
f 154//3 158//3 157//3
f 154//3 157//3 155//3
f 155//5 157//5 160//5
f 155//5 160//5 159//5
f 159//7 160//7 156//7
f 159//7 156//7 153//7
f 161//7 162//7 163//7
f 164//3 165//3 166//3
f 161//7 163//7 167//7
f 164//3 168//3 165//3
f 161//1 164//1 166//1
f 161//1 166//1 162//1
f 162//9 166//9 165//9
f 162//9 165//9 163//9
f 163//5 165//5 168//5
f 163//5 168//5 167//5
f 167//10 168//10 164//10
f 167//10 164//10 161//10
f 169//10 170//10 171//10
f 172//9 173//9 174//9
f 169//10 171//10 175//10
f 172//9 176//9 173//9
f 169//1 172//1 174//1
f 169//1 174//1 170//1
f 170//7 174//7 173//7
f 170//7 173//7 171//7
f 171//5 173//5 176//5
f 171//5 176//5 175//5
f 175//3 176//3 172//3
f 175//3 172//3 169//3
f 177//3 178//3 179//3
f 180//7 181//7 182//7
f 177//3 179//3 183//3
f 180//7 184//7 181//7
f 177//1 180//1 182//1
f 177//1 182//1 178//1
f 178//10 182//10 181//10
f 178//10 181//10 179//10
f 179//5 181//5 184//5
f 179//5 184//5 183//5
f 183//9 184//9 180//9
f 183//9 180//9 177//9
f 185//1 186//1 187//1
f 188//5 189//5 190//5
f 185//1 187//1 191//1
f 188//5 192//5 189//5
f 185//10 188//10 190//10
f 185//10 190//10 186//10
f 186//3 190//3 189//3
f 186//3 189//3 187//3
f 187//9 189//9 192//9
f 187//9 192//9 191//9
f 191//7 192//7 188//7
f 191//7 188//7 185//7
# Vertices: 192, normals: 23, texture coordinates: 0, faces: 408

