# File generated by ImageToStl.com - Free Image and 3D model conversion tools

o obj1
v 19.94 -20 39.89
v 19.94 -20 0
v 19.98 -19.98 0
v 19.98 -19.98 39.89
v 20 -19.94 0
v 20 -19.94 39.89
v 19.98 -19.91 0
v 19.98 -19.91 39.89
v 19.94 -19.89 0
v 19.94 -19.89 39.89
v 19.91 -19.91 0
v 19.91 -19.91 39.89
v 19.89 -19.94 0
v 19.89 -19.94 39.89
v 19.91 -19.98 0
v 19.91 -19.98 39.89
v 19.94 -19.99 39.92
v 19.94 -39.94 0.02
v 19.98 -39.93 0.01
v 19.98 -19.98 39.91
v 20 -39.89 0
v 19.98 -39.86 -0.01
v 19.98 -19.91 39.88
v 19.94 -39.85 -0.02
v 19.94 -19.9 39.87
v 19.91 -39.86 -0.01
v 19.91 -19.91 39.88
v 19.89 -39.89 0
v 19.91 -39.93 0.01
v 19.91 -19.98 39.91
v 19.94 -19.94 0.04
v 19.94 -39.89 0.04
v 19.98 -39.89 0.03
v 19.98 -19.94 0.03
v 19.98 -39.89 -0.03
v 19.98 -19.94 -0.03
v 19.94 -39.89 -0.04
v 19.94 -19.94 -0.04
v 19.91 -39.89 -0.03
v 19.91 -19.94 -0.03
v 19.91 -39.89 0.03
v 19.91 -19.94 0.03
v 0 -39.9 -0.1
v 39.9 -39.9 -0.1
v 39.9 0 -0.1
v 0 -39.9 0.1
v 39.9 0 0.1
v 39.9 -39.9 0.1
v 0 0 -0.1
v 0 0 0.1
v 0 -39.81 -0.04
v 39.9 -39.81 -0.04
v 19.95 -19.86 39.85
v 0 -39.98 0.04
v 19.95 -20.03 39.94
v 39.9 -39.98 0.04
v 39.81 -39.9 -0.04
v 39.81 0 -0.04
v 19.86 -19.95 39.85
v 39.98 -39.9 0.04
v 20.03 -19.95 39.94
v 39.98 0 0.04
v 39.9 -0.08 -0.04
v 0 -0.08 -0.04
v 19.95 -20.03 39.85
v 39.9 0.08 0.04
v 19.95 -19.86 39.94
v 0 0.08 0.04
v 0.08 0 -0.04
v 0.08 -39.9 -0.04
v 20.03 -19.95 39.85
v -0.08 0 0.04
v 19.86 -19.95 39.94
v -0.08 -39.9 0.04
vn 0 -1 0
vn 0.7 -0.7 0
vn 1 -0 0
vn 0.7 0.7 0
vn 0 1 0
vn -0.7 0.7 0
vn -1 0 0
vn -0.7 -0.7 0
vn 0 0 1
vn 0 0 -0.99
vn 0 0 -1
vn 0 -0.89 0.44
vn 0.7 -0.63 0.31
vn 0.7 0.63 -0.31
vn 0 0.89 -0.44
vn -0.7 0.63 -0.31
vn -0.7 -0.63 0.31
vn -0 0.44 0.89
vn 0 -0.44 -0.89
vn 0.7 0 0.7
vn 0.7 0 -0.7
vn -0.7 0 -0.7
vn -0.7 0 0.7
vn 0 0.99 0
vn 0 -0.99 0
vn -0.99 0 0
vn 0.99 0 0
vn -0.91 -0.18 -0.36
vn 0.91 -0.18 -0.36
vn 0.89 0 0.44
vn -0.89 0 -0.44
vn -0.44 0 0.89
vn 0.18 -0.91 -0.36
vn 0.18 0.91 -0.36
vn 0 0.89 0.44
vn 0 -0.89 -0.44
vn 0 -0.44 0.89
vn 0.91 0.18 -0.36
vn -0.91 0.18 -0.36
vn -0.89 0 0.44
vn 0.89 0 -0.44
vn 0.44 0 0.89
vn -0.18 0.91 -0.36
vn -0.18 -0.91 -0.36
f 1//1 2//1 3//1
f 1//1 3//1 4//1
f 4//2 3//2 5//2
f 4//2 5//2 6//2
f 6//3 5//3 7//3
f 6//3 7//3 8//3
f 8//4 7//4 9//4
f 8//4 9//4 10//4
f 10//5 9//5 11//5
f 10//5 11//5 12//5
f 12//6 11//6 13//6
f 12//6 13//6 14//6
f 14//7 13//7 15//7
f 14//7 15//7 16//7
f 16//8 15//8 2//8
f 16//8 2//8 1//8
f 1//9 4//9 6//9
f 1//9 6//9 8//9
f 1//9 8//9 10//9
f 1//9 10//9 12//9
f 1//9 12//9 14//9
f 1//9 14//9 16//9
f 15//10 13//10 11//10
f 15//11 11//11 9//11
f 15//11 9//11 7//11
f 15//11 7//11 5//11
f 15//11 5//11 3//11
f 15//11 3//11 2//11
f 17//12 18//12 19//12
f 17//12 19//12 20//12
f 20//13 19//13 21//13
f 20//13 21//13 6//13
f 6//3 21//3 22//3
f 6//3 22//3 23//3
f 23//14 22//14 24//14
f 23//14 24//14 25//14
f 25//15 24//15 26//15
f 25//15 26//15 27//15
f 27//16 26//16 28//16
f 27//16 28//16 14//16
f 14//7 28//7 29//7
f 14//7 29//7 30//7
f 30//17 29//17 18//17
f 30//17 18//17 17//17
f 17//18 20//18 6//18
f 17//18 6//18 23//18
f 17//18 23//18 25//18
f 17//18 25//18 27//18
f 17//18 27//18 14//18
f 17//18 14//18 30//18
f 29//19 28//19 26//19
f 29//19 26//19 24//19
f 29//19 24//19 22//19
f 29//19 22//19 21//19
f 29//19 21//19 19//19
f 29//19 19//19 18//19
f 31//9 32//9 33//9
f 31//9 33//9 34//9
f 34//20 33//20 21//20
f 34//20 21//20 5//20
f 5//3 21//3 35//3
f 5//3 35//3 36//3
f 36//21 35//21 37//21
f 36//21 37//21 38//21
f 38//11 37//11 39//11
f 38//11 39//11 40//11
f 40//22 39//22 28//22
f 40//22 28//22 13//22
f 13//7 28//7 41//7
f 13//7 41//7 42//7
f 42//23 41//23 32//23
f 42//23 32//23 31//23
f 31//5 34//5 5//5
f 31//5 5//5 36//5
f 31//24 36//24 38//24
f 31//24 38//24 40//24
f 31//5 40//5 13//5
f 31//5 13//5 42//5
f 41//1 28//1 39//1
f 41//1 39//1 37//1
f 41//1 37//1 35//1
f 41//25 35//25 21//25
f 41//1 21//1 33//1
f 41//1 33//1 32//1
f 43//9 44//9 45//9
f 46//11 47//11 48//11
f 43//9 45//9 49//9
f 46//11 50//11 47//11
f 43//24 46//24 48//24
f 43//24 48//24 44//24
f 44//26 48//26 47//26
f 44//26 47//26 45//26
f 45//25 47//25 50//25
f 45//25 50//25 49//25
f 49//27 50//27 46//27
f 49//27 46//27 43//27
f 51//12 52//12 53//12
f 54//15 55//15 56//15
f 51//18 54//18 56//18
f 51//18 56//18 52//18
f 52//28 56//28 55//28
f 52//28 55//28 53//28
f 53//29 55//29 54//29
f 53//29 54//29 51//29
f 57//30 58//30 59//30
f 60//31 61//31 62//31
f 57//32 60//32 62//32
f 57//32 62//32 58//32
f 58//33 62//33 61//33
f 58//33 61//33 59//33
f 59//34 61//34 60//34
f 59//34 60//34 57//34
f 63//35 64//35 65//35
f 66//36 67//36 68//36
f 63//37 66//37 68//37
f 63//37 68//37 64//37
f 64//38 68//38 67//38
f 64//38 67//38 65//38
f 65//39 67//39 66//39
f 65//39 66//39 63//39
f 69//40 70//40 71//40
f 72//41 73//41 74//41
f 69//42 72//42 74//42
f 69//42 74//42 70//42
f 70//43 74//43 73//43
f 70//43 73//43 71//43
f 71//44 73//44 72//44
f 71//44 72//44 69//44
# Vertices: 74, normals: 44, texture coordinates: 0, faces: 128

