# File generated by ImageToStl.com - Free Image and 3D model conversion tools

o obj1
v 0 -26.6 0.04
v 26.6 -26.6 0.04
v 26.6 -26.56 0.03
v 0 -26.56 0.03
v 26.6 -26.55 0
v 0 -26.55 0
v 26.6 -26.56 -0.03
v 0 -26.56 -0.03
v 26.6 -26.6 -0.04
v 0 -26.6 -0.04
v 26.6 -26.63 -0.03
v 0 -26.63 -0.03
v 26.6 -26.65 0
v 0 -26.65 0
v 26.6 -26.63 0.03
v 0 -26.63 0.03
v 26.6 0 -0.04
v 26.63 0 -0.03
v 26.63 -26.6 -0.03
v 26.65 0 0
v 26.65 -26.6 0
v 26.63 0 0.03
v 26.63 -26.6 0.03
v 26.6 0 0.04
v 26.56 0 0.03
v 26.56 -26.6 0.03
v 26.55 0 0
v 26.55 -26.6 0
v 26.56 0 -0.03
v 26.56 -26.6 -0.03
v 0 0 0.04
v 0 -0.03 0.03
v 26.6 -0.03 0.03
v 0 -0.04 0
v 26.6 -0.04 0
v 0 -0.03 -0.03
v 26.6 -0.03 -0.03
v 0 0 -0.04
v 0 0.03 -0.03
v 26.6 0.03 -0.03
v 0 0.04 0
v 26.6 0.04 0
v 0 0.03 0.03
v 26.6 0.03 0.03
v 0.03 -26.6 0.03
v 0.03 0 0.03
v 0.04 -26.6 0
v 0.04 0 0
v 0.03 -26.6 -0.03
v 0.03 0 -0.03
v -0.03 -26.6 -0.03
v -0.03 0 -0.03
v -0.04 -26.6 0
v -0.04 0 0
v -0.03 -26.6 0.03
v -0.03 0 0.03
v 26.63 -26.63 0.02
v 13.33 -13.33 39.92
v 13.29 -13.34 39.91
v 26.59 -26.64 0.01
v 13.26 -13.33 39.89
v 26.56 -26.63 0
v 13.25 -13.3 39.88
v 26.55 -26.6 -0.01
v 13.26 -13.26 39.87
v 26.56 -26.56 -0.02
v 13.3 -13.25 39.88
v 26.6 -26.55 -0.01
v 13.33 -13.26 39.89
v 26.63 -26.56 0
v 13.34 -13.29 39.91
v 26.64 -26.59 0.01
v 13.26 -13.33 39.92
v -0.03 -26.63 0.02
v 0 -26.64 0.01
v 13.3 -13.34 39.91
v 0.03 -26.63 0
v 13.33 -13.33 39.89
v 0.04 -26.6 -0.01
v 13.34 -13.3 39.88
v 0.03 -26.56 -0.02
v 13.33 -13.26 39.87
v 0 -26.55 -0.01
v 13.29 -13.25 39.88
v -0.03 -26.56 0
v 13.26 -13.26 39.89
v -0.04 -26.59 0.01
v 13.25 -13.29 39.91
v 26.63 0.03 0.02
v 13.33 -13.26 39.92
v 13.34 -13.3 39.91
v 26.64 0 0.01
v 26.63 -0.03 0
v 13.3 -13.34 39.88
v 26.6 -0.04 -0.01
v 13.26 -13.33 39.87
v 26.56 -0.03 -0.02
v 13.25 -13.29 39.88
v 26.55 0 -0.01
v 26.56 0.03 0
v 13.29 -13.25 39.91
v 26.59 0.04 0.01
v -0.03 0.03 0.02
v 13.26 -13.26 39.92
v 13.3 -13.25 39.91
v 0 0.04 0.01
v 0.03 0.03 0
v 13.34 -13.29 39.88
v 0.04 0 -0.01
v 13.33 -13.33 39.87
v 0.03 -0.03 -0.02
v 13.29 -13.34 39.88
v 0 -0.04 -0.01
v -0.03 -0.03 0
v 13.25 -13.3 39.91
v -0.04 0 0.01
v 13.3 -13.34 39.89
v 13.3 -13.34 0
v 13.33 -13.33 0
v 13.34 -13.3 0
v 13.34 -13.3 39.89
v 13.33 -13.26 0
v 13.3 -13.25 0
v 13.3 -13.25 39.89
v 13.26 -13.26 0
v 13.25 -13.3 0
v 13.25 -13.3 39.89
v 13.26 -13.33 0
v 13.3 -13.3 0.04
v 0 -13.3 0.04
v 0 -13.33 0.03
v 13.3 -13.33 0.03
v 0 -13.34 0
v 0 -13.33 -0.03
v 13.3 -13.33 -0.03
v 0 -13.3 -0.04
v 13.3 -13.3 -0.04
v 0 -13.26 -0.03
v 13.3 -13.26 -0.03
v 0 -13.25 0
v 0 -13.26 0.03
v 13.3 -13.26 0.03
vn 0 0 1
vn 0 0.7 0.7
vn 0 1 0
vn 0 0.7 -0.7
vn 0 0 -1
vn 0 -0.7 -0.7
vn 0 -1 -0
vn 0 -0.7 0.7
vn -1 0 0
vn -0.99 0 0
vn 1 0 0
vn 0.99 0 0
vn 0.7 0 -0.7
vn 0.7 0 0.7
vn -0.7 0 0.7
vn -0.7 0 -0.7
vn 0 -0.99 0
vn 0 0.99 0
vn 0.63 -0.63 0.42
vn -0.04 -0.95 0.3
vn -0.7 -0.7 0
vn -0.95 -0.04 -0.3
vn -0.63 0.63 -0.42
vn 0.04 0.95 -0.3
vn 0.7 0.7 -0
vn 0.95 0.04 0.3
vn 0.3 -0.3 -0.9
vn -0.3 0.3 0.9
vn -0.63 -0.63 0.42
vn 0.04 -0.95 0.3
vn 0.7 -0.7 0
vn 0.95 -0.04 -0.3
vn 0.63 0.63 -0.42
vn -0.04 0.95 -0.3
vn -0.7 0.7 -0
vn -0.95 0.04 0.3
vn 0.3 0.3 0.9
vn -0.3 -0.3 -0.9
vn 0.63 0.63 0.42
vn 0.95 -0.04 0.3
vn 0.04 -0.95 -0.3
vn -0.63 -0.63 -0.42
vn -0.95 0.04 -0.3
vn -0.04 0.95 0.3
vn 0.3 0.3 -0.9
vn -0.3 -0.3 0.9
vn -0.63 0.63 0.42
vn 0.04 0.95 0.3
vn 0.95 0.04 -0.3
vn 0.63 -0.63 -0.42
vn -0.04 -0.95 -0.3
vn -0.95 -0.04 0.3
vn -0.3 0.3 -0.9
vn 0.3 -0.3 0.9
vn 0 0 0.99
vn 0 0 -0.99
f 1//1 2//1 3//1
f 1//1 3//1 4//1
f 4//2 3//2 5//2
f 4//2 5//2 6//2
f 6//3 5//3 7//3
f 6//3 7//3 8//3
f 8//4 7//4 9//4
f 8//4 9//4 10//4
f 10//5 9//5 11//5
f 10//5 11//5 12//5
f 12//6 11//6 13//6
f 12//6 13//6 14//6
f 14//7 13//7 15//7
f 14//7 15//7 16//7
f 16//8 15//8 2//8
f 16//8 2//8 1//8
f 1//9 4//9 6//9
f 1//9 6//9 8//9
f 1//9 8//9 10//9
f 1//9 10//9 12//9
f 1//10 12//10 14//10
f 1//10 14//10 16//10
f 15//11 13//11 11//11
f 15//11 11//11 9//11
f 15//11 9//11 7//11
f 15//11 7//11 5//11
f 15//12 5//12 3//12
f 15//11 3//11 2//11
f 9//5 17//5 18//5
f 9//5 18//5 19//5
f 19//13 18//13 20//13
f 19//13 20//13 21//13
f 21//11 20//11 22//11
f 21//11 22//11 23//11
f 23//14 22//14 24//14
f 23//14 24//14 2//14
f 2//1 24//1 25//1
f 2//1 25//1 26//1
f 26//15 25//15 27//15
f 26//15 27//15 28//15
f 28//9 27//9 29//9
f 28//9 29//9 30//9
f 30//16 29//16 17//16
f 30//16 17//16 9//16
f 9//17 19//17 21//17
f 9//17 21//17 23//17
f 9//7 23//7 2//7
f 9//7 2//7 26//7
f 9//7 26//7 28//7
f 9//7 28//7 30//7
f 29//3 27//3 25//3
f 29//3 25//3 24//3
f 29//3 24//3 22//3
f 29//3 22//3 20//3
f 29//18 20//18 18//18
f 29//3 18//3 17//3
f 24//1 31//1 32//1
f 24//1 32//1 33//1
f 33//8 32//8 34//8
f 33//8 34//8 35//8
f 35//7 34//7 36//7
f 35//7 36//7 37//7
f 37//6 36//6 38//6
f 37//6 38//6 17//6
f 17//5 38//5 39//5
f 17//5 39//5 40//5
f 40//4 39//4 41//4
f 40//4 41//4 42//4
f 42//3 41//3 43//3
f 42//3 43//3 44//3
f 44//2 43//2 31//2
f 44//2 31//2 24//2
f 24//11 33//11 35//11
f 24//11 35//11 37//11
f 24//11 37//11 17//11
f 24//12 17//12 40//12
f 24//11 40//11 42//11
f 24//11 42//11 44//11
f 43//9 41//9 39//9
f 43//9 39//9 38//9
f 43//9 38//9 36//9
f 43//10 36//10 34//10
f 43//9 34//9 32//9
f 43//9 32//9 31//9
f 31//1 1//1 45//1
f 31//1 45//1 46//1
f 46//14 45//14 47//14
f 46//14 47//14 48//14
f 48//11 47//11 49//11
f 48//11 49//11 50//11
f 50//13 49//13 10//13
f 50//13 10//13 38//13
f 38//5 10//5 51//5
f 38//5 51//5 52//5
f 52//16 51//16 53//16
f 52//16 53//16 54//16
f 54//9 53//9 55//9
f 54//9 55//9 56//9
f 56//15 55//15 1//15
f 56//15 1//15 31//15
f 31//3 46//3 48//3
f 31//3 48//3 50//3
f 31//3 50//3 38//3
f 31//18 38//18 52//18
f 31//3 52//3 54//3
f 31//3 54//3 56//3
f 55//7 53//7 51//7
f 55//7 51//7 10//7
f 55//7 10//7 49//7
f 55//17 49//17 47//17
f 55//7 47//7 45//7
f 55//7 45//7 1//7
f 57//19 58//19 59//19
f 57//19 59//19 60//19
f 60//20 59//20 61//20
f 60//20 61//20 62//20
f 62//21 61//21 63//21
f 62//21 63//21 64//21
f 64//22 63//22 65//22
f 64//22 65//22 66//22
f 66//23 65//23 67//23
f 66//23 67//23 68//23
f 68//24 67//24 69//24
f 68//24 69//24 70//24
f 70//25 69//25 71//25
f 70//25 71//25 72//25
f 72//26 71//26 58//26
f 72//26 58//26 57//26
f 57//27 60//27 62//27
f 57//27 62//27 64//27
f 57//27 64//27 66//27
f 57//27 66//27 68//27
f 57//27 68//27 70//27
f 57//27 70//27 72//27
f 71//28 69//28 67//28
f 71//28 67//28 65//28
f 71//28 65//28 63//28
f 71//28 63//28 61//28
f 71//28 61//28 59//28
f 71//28 59//28 58//28
f 73//29 74//29 75//29
f 73//29 75//29 76//29
f 76//30 75//30 77//30
f 76//30 77//30 78//30
f 78//31 77//31 79//31
f 78//31 79//31 80//31
f 80//32 79//32 81//32
f 80//32 81//32 82//32
f 82//33 81//33 83//33
f 82//33 83//33 84//33
f 84//34 83//34 85//34
f 84//34 85//34 86//34
f 86//35 85//35 87//35
f 86//35 87//35 88//35
f 88//36 87//36 74//36
f 88//36 74//36 73//36
f 73//37 76//37 78//37
f 73//37 78//37 80//37
f 73//37 80//37 82//37
f 73//37 82//37 84//37
f 73//37 84//37 86//37
f 73//37 86//37 88//37
f 87//38 85//38 83//38
f 87//38 83//38 81//38
f 87//38 81//38 79//38
f 87//38 79//38 77//38
f 87//38 77//38 75//38
f 87//38 75//38 74//38
f 89//39 90//39 91//39
f 89//39 91//39 92//39
f 92//40 91//40 78//40
f 92//40 78//40 93//40
f 93//31 78//31 94//31
f 93//31 94//31 95//31
f 95//41 94//41 96//41
f 95//41 96//41 97//41
f 97//42 96//42 98//42
f 97//42 98//42 99//42
f 99//43 98//43 86//43
f 99//43 86//43 100//43
f 100//35 86//35 101//35
f 100//35 101//35 102//35
f 102//44 101//44 90//44
f 102//44 90//44 89//44
f 89//45 92//45 93//45
f 89//45 93//45 95//45
f 89//45 95//45 97//45
f 89//45 97//45 99//45
f 89//45 99//45 100//45
f 89//45 100//45 102//45
f 101//46 86//46 98//46
f 101//46 98//46 96//46
f 101//46 96//46 94//46
f 101//46 94//46 78//46
f 101//46 78//46 91//46
f 101//46 91//46 90//46
f 103//47 104//47 105//47
f 103//47 105//47 106//47
f 106//48 105//48 69//48
f 106//48 69//48 107//48
f 107//25 69//25 108//25
f 107//25 108//25 109//25
f 109//49 108//49 110//49
f 109//49 110//49 111//49
f 111//50 110//50 112//50
f 111//50 112//50 113//50
f 113//51 112//51 61//51
f 113//51 61//51 114//51
f 114//21 61//21 115//21
f 114//21 115//21 116//21
f 116//52 115//52 104//52
f 116//52 104//52 103//52
f 103//53 106//53 107//53
f 103//53 107//53 109//53
f 103//53 109//53 111//53
f 103//53 111//53 113//53
f 103//53 113//53 114//53
f 103//53 114//53 116//53
f 115//54 61//54 112//54
f 115//54 112//54 110//54
f 115//54 110//54 108//54
f 115//54 108//54 69//54
f 115//54 69//54 105//54
f 115//54 105//54 104//54
f 117//7 118//7 119//7
f 117//7 119//7 78//7
f 78//31 119//31 120//31
f 78//31 120//31 121//31
f 121//11 120//11 122//11
f 121//11 122//11 69//11
f 69//25 122//25 123//25
f 69//25 123//25 124//25
f 124//3 123//3 125//3
f 124//3 125//3 86//3
f 86//35 125//35 126//35
f 86//35 126//35 127//35
f 127//9 126//9 128//9
f 127//9 128//9 61//9
f 61//21 128//21 118//21
f 61//21 118//21 117//21
f 117//1 78//1 121//1
f 117//1 121//1 69//1
f 117//1 69//1 124//1
f 117//55 124//55 86//55
f 117//1 86//1 127//1
f 117//1 127//1 61//1
f 128//5 126//5 125//5
f 128//5 125//5 123//5
f 128//56 123//56 122//56
f 128//5 122//5 120//5
f 128//5 120//5 119//5
f 128//5 119//5 118//5
f 129//1 130//1 131//1
f 129//1 131//1 132//1
f 132//8 131//8 133//8
f 132//8 133//8 118//8
f 118//7 133//7 134//7
f 118//7 134//7 135//7
f 135//6 134//6 136//6
f 135//6 136//6 137//6
f 137//5 136//5 138//5
f 137//5 138//5 139//5
f 139//4 138//4 140//4
f 139//4 140//4 123//4
f 123//3 140//3 141//3
f 123//3 141//3 142//3
f 142//2 141//2 130//2
f 142//2 130//2 129//2
f 129//11 132//11 118//11
f 129//11 118//11 135//11
f 129//11 135//11 137//11
f 129//11 137//11 139//11
f 129//11 139//11 123//11
f 129//11 123//11 142//11
f 141//9 140//9 138//9
f 141//9 138//9 136//9
f 141//9 136//9 134//9
f 141//9 134//9 133//9
f 141//9 133//9 131//9
f 141//9 131//9 130//9
# Vertices: 142, normals: 56, texture coordinates: 0, faces: 280

