# File generated by ImageToStl.com - Free Image and 3D model conversion tools

o obj1
v 0 0 0.25
v 10.38 0 0.25
v 10.38 0.17 0.17
v 0 0.17 0.17
v 10.38 0.25 0
v 0 0.25 0
v 10.38 0.17 -0.17
v 0 0.17 -0.17
v 10.38 0 -0.25
v 0 0 -0.25
v 10.38 -0.17 -0.17
v 0 -0.17 -0.17
v 10.38 -0.25 0
v 0 -0.25 0
v 10.38 -0.17 0.17
v 0 -0.17 0.17
v 10.38 10.38 -0.25
v 10.55 10.38 -0.17
v 10.55 0 -0.17
v 10.63 10.38 0
v 10.63 0 0
v 10.55 10.38 0.17
v 10.55 0 0.17
v 10.38 10.38 0.25
v 10.2 10.38 0.17
v 10.2 0 0.17
v 10.13 10.38 0
v 10.13 0 0
v 10.2 10.38 -0.17
v 10.2 0 -0.17
v 0 10.38 0.25
v 0 10.2 0.17
v 10.38 10.2 0.17
v 0 10.13 0
v 10.38 10.13 0
v 0 10.2 -0.17
v 10.38 10.2 -0.17
v 0 10.38 -0.25
v 0 10.55 -0.17
v 10.38 10.55 -0.17
v 0 10.63 0
v 10.38 10.63 0
v 0 10.55 0.17
v 10.38 10.55 0.17
v 0.17 0 0.17
v 0.17 10.38 0.17
v 0.25 0 0
v 0.25 10.38 0
v 0.17 0 -0.17
v 0.17 10.38 -0.17
v -0.17 0 -0.17
v -0.17 10.38 -0.17
v -0.25 0 0
v -0.25 10.38 0
v -0.17 0 0.17
v -0.17 10.38 0.17
v 5.19 -14.78 0.25
v 5.35 -14.84 0.17
v 10.54 -0.05 0.17
v 5.42 -14.86 0
v 10.61 -0.08 0
v 5.35 -14.84 -0.17
v 10.54 -0.05 -0.17
v 5.19 -14.78 -0.25
v 5.02 -14.72 -0.17
v 10.21 0.05 -0.17
v 4.95 -14.69 0
v 10.14 0.08 0
v 5.02 -14.72 0.17
v 10.21 0.05 0.17
v -0.16 -0.05 0.17
v 5.02 -14.84 0.17
v -0.23 -0.08 0
v 4.95 -14.86 0
v -0.16 -0.05 -0.17
v 5.02 -14.84 -0.17
v 0.16 0.05 -0.17
v 5.35 -14.72 -0.17
v 0.23 0.08 0
v 5.42 -14.69 0
v 0.16 0.05 0.17
v 5.35 -14.72 0.17
v 25.16 5.19 0.25
v 25.22 5.35 0.17
v 10.43 10.54 0.17
v 25.24 5.42 0
v 10.46 10.61 0
v 25.22 5.35 -0.17
v 10.43 10.54 -0.17
v 25.16 5.19 -0.25
v 25.1 5.02 -0.17
v 10.32 10.21 -0.17
v 25.07 4.95 0
v 10.29 10.14 0
v 25.1 5.02 0.17
v 10.32 10.21 0.17
v 10.43 -0.16 0.17
v 25.22 5.02 0.17
v 10.46 -0.23 0
v 25.24 4.95 0
v 10.43 -0.16 -0.17
v 25.22 5.02 -0.17
v 10.32 0.16 -0.17
v 25.1 5.35 -0.17
v 10.29 0.23 0
v 25.07 5.42 0
v 10.32 0.16 0.17
v 25.1 5.35 0.17
v 5.19 25.16 0.25
v 5.02 25.22 0.17
v -0.16 10.43 0.17
v 4.95 25.24 0
v -0.23 10.46 0
v 5.02 25.22 -0.17
v -0.16 10.43 -0.17
v 5.19 25.16 -0.25
v 5.35 25.1 -0.17
v 0.16 10.32 -0.17
v 5.42 25.07 0
v 0.23 10.29 0
v 5.35 25.1 0.17
v 0.16 10.32 0.17
v 10.54 10.43 0.17
v 5.35 25.22 0.17
v 10.61 10.46 0
v 5.42 25.24 0
v 10.54 10.43 -0.17
v 5.35 25.22 -0.17
v 10.21 10.32 -0.17
v 5.02 25.1 -0.17
v 10.14 10.29 0
v 4.95 25.07 0
v 10.21 10.32 0.17
v 5.02 25.1 0.17
v -14.78 5.19 0.25
v -14.84 5.02 0.17
v -0.05 -0.16 0.17
v -14.86 4.95 0
v -0.08 -0.23 0
v -14.84 5.02 -0.17
v -0.05 -0.16 -0.17
v -14.78 5.19 -0.25
v -14.72 5.35 -0.17
v 0.05 0.16 -0.17
v -14.69 5.42 0
v 0.08 0.23 0
v -14.72 5.35 0.17
v 0.05 0.16 0.17
v -0.05 10.54 0.17
v -14.84 5.35 0.17
v -0.08 10.61 0
v -14.86 5.42 0
v -0.05 10.54 -0.17
v -14.84 5.35 -0.17
v 0.05 10.21 -0.17
v -14.72 5.02 -0.17
v 0.08 10.14 0
v -14.69 4.95 0
v 0.05 10.21 0.17
v -14.72 5.02 0.17
v 0 0 0.09
v 10.38 0 0.09
v 10.38 10.38 0.09
v 0 0 -0.09
v 10.38 10.38 -0.09
v 10.38 0 -0.09
v 0 10.38 0.09
v 0 10.38 -0.09
v 5.19 -14.78 -0.09
v 5.19 -14.78 0.09
v 25.16 5.19 -0.09
v 25.16 5.19 0.09
v 5.19 25.16 -0.09
v 5.19 25.16 0.09
v -14.78 5.19 -0.09
v -14.78 5.19 0.09
vn 0 0 1
vn 0 0.7 0.7
vn 0 1 0
vn 0 0.7 -0.7
vn 0 0 -1
vn 0 -0.7 -0.7
vn 0 -1 -0
vn 0 -0.7 0.7
vn -1 0 0
vn 1 0 0
vn 0.7 0 -0.7
vn 0.7 0 0.7
vn -0.7 0 0.7
vn -0.7 0 -0.7
vn 0 -0.99 0
vn 0 0.99 0
vn 0.99 0 0
vn -0.99 0 0
vn 0.66 -0.23 0.7
vn 0.94 -0.33 0
vn 0.66 -0.23 -0.7
vn -0.66 0.23 -0.7
vn -0.94 0.33 -0
vn -0.66 0.23 0.7
vn 0.33 0.94 0
vn -0.33 -0.94 0
vn -0.66 -0.23 0.7
vn -0.94 -0.33 0
vn -0.66 -0.23 -0.7
vn 0.66 0.23 -0.7
vn 0.94 0.33 -0
vn 0.66 0.23 0.7
vn 0.33 -0.94 -0
vn -0.33 0.94 0
vn 0.23 0.66 0.7
vn 0.23 0.66 -0.7
vn -0.23 -0.66 -0.7
vn -0.23 -0.66 0.7
vn 0.23 -0.66 0.7
vn 0.23 -0.66 -0.7
vn -0.23 0.66 -0.7
vn -0.23 0.66 0.7
f 1//1 2//1 3//1
f 1//1 3//1 4//1
f 4//2 3//2 5//2
f 4//2 5//2 6//2
f 6//3 5//3 7//3
f 6//3 7//3 8//3
f 8//4 7//4 9//4
f 8//4 9//4 10//4
f 10//5 9//5 11//5
f 10//5 11//5 12//5
f 12//6 11//6 13//6
f 12//6 13//6 14//6
f 14//7 13//7 15//7
f 14//7 15//7 16//7
f 16//8 15//8 2//8
f 16//8 2//8 1//8
f 1//9 4//9 6//9
f 1//9 6//9 8//9
f 1//9 8//9 10//9
f 1//9 10//9 12//9
f 1//9 12//9 14//9
f 1//9 14//9 16//9
f 15//10 13//10 11//10
f 15//10 11//10 9//10
f 15//10 9//10 7//10
f 15//10 7//10 5//10
f 15//10 5//10 3//10
f 15//10 3//10 2//10
f 9//5 17//5 18//5
f 9//5 18//5 19//5
f 19//11 18//11 20//11
f 19//11 20//11 21//11
f 21//10 20//10 22//10
f 21//10 22//10 23//10
f 23//12 22//12 24//12
f 23//12 24//12 2//12
f 2//1 24//1 25//1
f 2//1 25//1 26//1
f 26//13 25//13 27//13
f 26//13 27//13 28//13
f 28//9 27//9 29//9
f 28//9 29//9 30//9
f 30//14 29//14 17//14
f 30//14 17//14 9//14
f 9//15 19//15 21//15
f 9//7 21//7 23//7
f 9//15 23//15 2//15
f 9//7 2//7 26//7
f 9//7 26//7 28//7
f 9//7 28//7 30//7
f 29//3 27//3 25//3
f 29//3 25//3 24//3
f 29//16 24//16 22//16
f 29//16 22//16 20//16
f 29//3 20//3 18//3
f 29//3 18//3 17//3
f 24//1 31//1 32//1
f 24//1 32//1 33//1
f 33//8 32//8 34//8
f 33//8 34//8 35//8
f 35//7 34//7 36//7
f 35//7 36//7 37//7
f 37//6 36//6 38//6
f 37//6 38//6 17//6
f 17//5 38//5 39//5
f 17//5 39//5 40//5
f 40//4 39//4 41//4
f 40//4 41//4 42//4
f 42//3 41//3 43//3
f 42//3 43//3 44//3
f 44//2 43//2 31//2
f 44//2 31//2 24//2
f 24//17 33//17 35//17
f 24//10 35//10 37//10
f 24//10 37//10 17//10
f 24//17 17//17 40//17
f 24//17 40//17 42//17
f 24//10 42//10 44//10
f 43//18 41//18 39//18
f 43//9 39//9 38//9
f 43//18 38//18 36//18
f 43//18 36//18 34//18
f 43//9 34//9 32//9
f 43//9 32//9 31//9
f 31//1 1//1 45//1
f 31//1 45//1 46//1
f 46//12 45//12 47//12
f 46//12 47//12 48//12
f 48//10 47//10 49//10
f 48//10 49//10 50//10
f 50//11 49//11 10//11
f 50//11 10//11 38//11
f 38//5 10//5 51//5
f 38//5 51//5 52//5
f 52//14 51//14 53//14
f 52//14 53//14 54//14
f 54//9 53//9 55//9
f 54//9 55//9 56//9
f 56//13 55//13 1//13
f 56//13 1//13 31//13
f 31//3 46//3 48//3
f 31//3 48//3 50//3
f 31//3 50//3 38//3
f 31//3 38//3 52//3
f 31//3 52//3 54//3
f 31//3 54//3 56//3
f 55//7 53//7 51//7
f 55//7 51//7 10//7
f 55//7 10//7 49//7
f 55//7 49//7 47//7
f 55//7 47//7 45//7
f 55//7 45//7 1//7
f 1//1 2//1 3//1
f 1//1 3//1 4//1
f 4//2 3//2 5//2
f 4//2 5//2 6//2
f 6//3 5//3 7//3
f 6//3 7//3 8//3
f 8//4 7//4 9//4
f 8//4 9//4 10//4
f 10//5 9//5 11//5
f 10//5 11//5 12//5
f 12//6 11//6 13//6
f 12//6 13//6 14//6
f 14//7 13//7 15//7
f 14//7 15//7 16//7
f 16//8 15//8 2//8
f 16//8 2//8 1//8
f 1//9 4//9 6//9
f 1//9 6//9 8//9
f 1//9 8//9 10//9
f 1//9 10//9 12//9
f 1//9 12//9 14//9
f 1//9 14//9 16//9
f 15//10 13//10 11//10
f 15//10 11//10 9//10
f 15//10 9//10 7//10
f 15//10 7//10 5//10
f 15//10 5//10 3//10
f 15//10 3//10 2//10
f 9//5 17//5 18//5
f 9//5 18//5 19//5
f 19//11 18//11 20//11
f 19//11 20//11 21//11
f 21//10 20//10 22//10
f 21//10 22//10 23//10
f 23//12 22//12 24//12
f 23//12 24//12 2//12
f 2//1 24//1 25//1
f 2//1 25//1 26//1
f 26//13 25//13 27//13
f 26//13 27//13 28//13
f 28//9 27//9 29//9
f 28//9 29//9 30//9
f 30//14 29//14 17//14
f 30//14 17//14 9//14
f 9//15 19//15 21//15
f 9//7 21//7 23//7
f 9//15 23//15 2//15
f 9//7 2//7 26//7
f 9//7 26//7 28//7
f 9//7 28//7 30//7
f 29//3 27//3 25//3
f 29//3 25//3 24//3
f 29//16 24//16 22//16
f 29//16 22//16 20//16
f 29//3 20//3 18//3
f 29//3 18//3 17//3
f 24//1 31//1 32//1
f 24//1 32//1 33//1
f 33//8 32//8 34//8
f 33//8 34//8 35//8
f 35//7 34//7 36//7
f 35//7 36//7 37//7
f 37//6 36//6 38//6
f 37//6 38//6 17//6
f 17//5 38//5 39//5
f 17//5 39//5 40//5
f 40//4 39//4 41//4
f 40//4 41//4 42//4
f 42//3 41//3 43//3
f 42//3 43//3 44//3
f 44//2 43//2 31//2
f 44//2 31//2 24//2
f 24//17 33//17 35//17
f 24//10 35//10 37//10
f 24//10 37//10 17//10
f 24//17 17//17 40//17
f 24//17 40//17 42//17
f 24//10 42//10 44//10
f 43//18 41//18 39//18
f 43//9 39//9 38//9
f 43//18 38//18 36//18
f 43//18 36//18 34//18
f 43//9 34//9 32//9
f 43//9 32//9 31//9
f 31//1 1//1 45//1
f 31//1 45//1 46//1
f 46//12 45//12 47//12
f 46//12 47//12 48//12
f 48//10 47//10 49//10
f 48//10 49//10 50//10
f 50//11 49//11 10//11
f 50//11 10//11 38//11
f 38//5 10//5 51//5
f 38//5 51//5 52//5
f 52//14 51//14 53//14
f 52//14 53//14 54//14
f 54//9 53//9 55//9
f 54//9 55//9 56//9
f 56//13 55//13 1//13
f 56//13 1//13 31//13
f 31//3 46//3 48//3
f 31//3 48//3 50//3
f 31//3 50//3 38//3
f 31//3 38//3 52//3
f 31//3 52//3 54//3
f 31//3 54//3 56//3
f 55//7 53//7 51//7
f 55//7 51//7 10//7
f 55//7 10//7 49//7
f 55//7 49//7 47//7
f 55//7 47//7 45//7
f 55//7 45//7 1//7
f 2//1 57//1 58//1
f 2//1 58//1 59//1
f 59//19 58//19 60//19
f 59//19 60//19 61//19
f 61//20 60//20 62//20
f 61//20 62//20 63//20
f 63//21 62//21 64//21
f 63//21 64//21 9//21
f 9//5 64//5 65//5
f 9//5 65//5 66//5
f 66//22 65//22 67//22
f 66//22 67//22 68//22
f 68//23 67//23 69//23
f 68//23 69//23 70//23
f 70//24 69//24 57//24
f 70//24 57//24 2//24
f 2//25 59//25 61//25
f 2//25 61//25 63//25
f 2//25 63//25 9//25
f 2//25 9//25 66//25
f 2//25 66//25 68//25
f 2//25 68//25 70//25
f 69//26 67//26 65//26
f 69//26 65//26 64//26
f 69//26 64//26 62//26
f 69//26 62//26 60//26
f 69//26 60//26 58//26
f 69//26 58//26 57//26
f 57//1 1//1 71//1
f 57//1 71//1 72//1
f 72//27 71//27 73//27
f 72//27 73//27 74//27
f 74//28 73//28 75//28
f 74//28 75//28 76//28
f 76//29 75//29 10//29
f 76//29 10//29 64//29
f 64//5 10//5 77//5
f 64//5 77//5 78//5
f 78//30 77//30 79//30
f 78//30 79//30 80//30
f 80//31 79//31 81//31
f 80//31 81//31 82//31
f 82//32 81//32 1//32
f 82//32 1//32 57//32
f 57//33 72//33 74//33
f 57//33 74//33 76//33
f 57//33 76//33 64//33
f 57//33 64//33 78//33
f 57//33 78//33 80//33
f 57//33 80//33 82//33
f 81//34 79//34 77//34
f 81//34 77//34 10//34
f 81//34 10//34 75//34
f 81//34 75//34 73//34
f 81//34 73//34 71//34
f 81//34 71//34 1//34
f 24//1 83//1 84//1
f 24//1 84//1 85//1
f 85//35 84//35 86//35
f 85//35 86//35 87//35
f 87//25 86//25 88//25
f 87//25 88//25 89//25
f 89//36 88//36 90//36
f 89//36 90//36 17//36
f 17//5 90//5 91//5
f 17//5 91//5 92//5
f 92//37 91//37 93//37
f 92//37 93//37 94//37
f 94//26 93//26 95//26
f 94//26 95//26 96//26
f 96//38 95//38 83//38
f 96//38 83//38 24//38
f 24//23 85//23 87//23
f 24//23 87//23 89//23
f 24//23 89//23 17//23
f 24//23 17//23 92//23
f 24//23 92//23 94//23
f 24//23 94//23 96//23
f 95//20 93//20 91//20
f 95//20 91//20 90//20
f 95//20 90//20 88//20
f 95//20 88//20 86//20
f 95//20 86//20 84//20
f 95//20 84//20 83//20
f 83//1 2//1 97//1
f 83//1 97//1 98//1
f 98//39 97//39 99//39
f 98//39 99//39 100//39
f 100//33 99//33 101//33
f 100//33 101//33 102//33
f 102//40 101//40 9//40
f 102//40 9//40 90//40
f 90//5 9//5 103//5
f 90//5 103//5 104//5
f 104//41 103//41 105//41
f 104//41 105//41 106//41
f 106//34 105//34 107//34
f 106//34 107//34 108//34
f 108//42 107//42 2//42
f 108//42 2//42 83//42
f 83//31 98//31 100//31
f 83//31 100//31 102//31
f 83//31 102//31 90//31
f 83//31 90//31 104//31
f 83//31 104//31 106//31
f 83//31 106//31 108//31
f 107//28 105//28 103//28
f 107//28 103//28 9//28
f 107//28 9//28 101//28
f 107//28 101//28 99//28
f 107//28 99//28 97//28
f 107//28 97//28 2//28
f 31//1 109//1 110//1
f 31//1 110//1 111//1
f 111//24 110//24 112//24
f 111//24 112//24 113//24
f 113//23 112//23 114//23
f 113//23 114//23 115//23
f 115//22 114//22 116//22
f 115//22 116//22 38//22
f 38//5 116//5 117//5
f 38//5 117//5 118//5
f 118//21 117//21 119//21
f 118//21 119//21 120//21
f 120//20 119//20 121//20
f 120//20 121//20 122//20
f 122//19 121//19 109//19
f 122//19 109//19 31//19
f 31//26 111//26 113//26
f 31//26 113//26 115//26
f 31//26 115//26 38//26
f 31//26 38//26 118//26
f 31//26 118//26 120//26
f 31//26 120//26 122//26
f 121//25 119//25 117//25
f 121//25 117//25 116//25
f 121//25 116//25 114//25
f 121//25 114//25 112//25
f 121//25 112//25 110//25
f 121//25 110//25 109//25
f 109//1 24//1 123//1
f 109//1 123//1 124//1
f 124//32 123//32 125//32
f 124//32 125//32 126//32
f 126//31 125//31 127//31
f 126//31 127//31 128//31
f 128//30 127//30 17//30
f 128//30 17//30 116//30
f 116//5 17//5 129//5
f 116//5 129//5 130//5
f 130//29 129//29 131//29
f 130//29 131//29 132//29
f 132//28 131//28 133//28
f 132//28 133//28 134//28
f 134//27 133//27 24//27
f 134//27 24//27 109//27
f 109//34 124//34 126//34
f 109//34 126//34 128//34
f 109//34 128//34 116//34
f 109//34 116//34 130//34
f 109//34 130//34 132//34
f 109//34 132//34 134//34
f 133//33 131//33 129//33
f 133//33 129//33 17//33
f 133//33 17//33 127//33
f 133//33 127//33 125//33
f 133//33 125//33 123//33
f 133//33 123//33 24//33
f 1//1 135//1 136//1
f 1//1 136//1 137//1
f 137//38 136//38 138//38
f 137//38 138//38 139//38
f 139//26 138//26 140//26
f 139//26 140//26 141//26
f 141//37 140//37 142//37
f 141//37 142//37 10//37
f 10//5 142//5 143//5
f 10//5 143//5 144//5
f 144//36 143//36 145//36
f 144//36 145//36 146//36
f 146//25 145//25 147//25
f 146//25 147//25 148//25
f 148//35 147//35 135//35
f 148//35 135//35 1//35
f 1//20 137//20 139//20
f 1//20 139//20 141//20
f 1//20 141//20 10//20
f 1//20 10//20 144//20
f 1//20 144//20 146//20
f 1//20 146//20 148//20
f 147//23 145//23 143//23
f 147//23 143//23 142//23
f 147//23 142//23 140//23
f 147//23 140//23 138//23
f 147//23 138//23 136//23
f 147//23 136//23 135//23
f 135//1 31//1 149//1
f 135//1 149//1 150//1
f 150//42 149//42 151//42
f 150//42 151//42 152//42
f 152//34 151//34 153//34
f 152//34 153//34 154//34
f 154//41 153//41 38//41
f 154//41 38//41 142//41
f 142//5 38//5 155//5
f 142//5 155//5 156//5
f 156//40 155//40 157//40
f 156//40 157//40 158//40
f 158//33 157//33 159//33
f 158//33 159//33 160//33
f 160//39 159//39 31//39
f 160//39 31//39 135//39
f 135//28 150//28 152//28
f 135//28 152//28 154//28
f 135//28 154//28 142//28
f 135//28 142//28 156//28
f 135//28 156//28 158//28
f 135//28 158//28 160//28
f 159//31 157//31 155//31
f 159//31 155//31 38//31
f 159//31 38//31 153//31
f 159//31 153//31 151//31
f 159//31 151//31 149//31
f 159//31 149//31 31//31
f 161//1 162//1 163//1
f 164//5 165//5 166//5
f 161//1 163//1 167//1
f 164//5 168//5 165//5
f 161//7 164//7 166//7
f 161//7 166//7 162//7
f 162//10 166//10 165//10
f 162//10 165//10 163//10
f 163//3 165//3 168//3
f 163//3 168//3 167//3
f 167//9 168//9 164//9
f 167//9 164//9 161//9
f 161//1 162//1 163//1
f 164//5 165//5 166//5
f 161//1 163//1 167//1
f 164//5 168//5 165//5
f 161//7 164//7 166//7
f 161//7 166//7 162//7
f 162//10 166//10 165//10
f 162//10 165//10 163//10
f 163//3 165//3 168//3
f 163//3 168//3 167//3
f 167//9 168//9 164//9
f 167//9 164//9 161//9
f 164//5 166//5 169//5
f 161//1 170//1 162//1
f 164//3 161//3 162//3
f 164//3 162//3 166//3
f 166//20 162//20 170//20
f 166//20 170//20 169//20
f 169//28 170//28 161//28
f 169//28 161//28 164//28
f 166//5 165//5 171//5
f 162//1 172//1 163//1
f 166//9 162//9 163//9
f 166//9 163//9 165//9
f 165//25 163//25 172//25
f 165//25 172//25 171//25
f 171//33 172//33 162//33
f 171//33 162//33 166//33
f 165//5 168//5 173//5
f 163//1 174//1 167//1
f 165//7 163//7 167//7
f 165//7 167//7 168//7
f 168//23 167//23 174//23
f 168//23 174//23 173//23
f 173//31 174//31 163//31
f 173//31 163//31 165//31
f 168//5 164//5 175//5
f 167//1 176//1 161//1
f 168//10 167//10 161//10
f 168//10 161//10 164//10
f 164//26 161//26 176//26
f 164//26 176//26 175//26
f 175//34 176//34 167//34
f 175//34 167//34 168//34
# Vertices: 176, normals: 42, texture coordinates: 0, faces: 504

