# File generated by ImageToStl.com - Free Image and 3D model conversion tools

o obj1
v 0 0 0.25
v 28.03 0 0.25
v 28.03 0.17 0.17
v 0 0.17 0.17
v 28.03 0.25 0
v 0 0.25 0
v 28.03 0.17 -0.17
v 0 0.17 -0.17
v 28.03 0 -0.25
v 0 0 -0.25
v 28.03 -0.17 -0.17
v 0 -0.17 -0.17
v 28.03 -0.25 0
v 0 -0.25 0
v 28.03 -0.17 0.17
v 0 -0.17 0.17
v 28.03 28.03 -0.25
v 28.21 28.03 -0.17
v 28.21 0 -0.17
v 28.28 28.03 0
v 28.28 0 0
v 28.21 28.03 0.17
v 28.21 0 0.17
v 28.03 28.03 0.25
v 27.86 28.03 0.17
v 27.86 0 0.17
v 27.78 28.03 0
v 27.78 0 0
v 27.86 28.03 -0.17
v 27.86 0 -0.17
v 0 28.03 0.25
v 0 27.86 0.17
v 28.03 27.86 0.17
v 0 27.78 0
v 28.03 27.78 0
v 0 27.86 -0.17
v 28.03 27.86 -0.17
v 0 28.03 -0.25
v 0 28.21 -0.17
v 28.03 28.21 -0.17
v 0 28.28 0
v 28.03 28.28 0
v 0 28.21 0.17
v 28.03 28.21 0.17
v 0.17 0 0.17
v 0.17 28.03 0.17
v 0.25 0 0
v 0.25 28.03 0
v 0.17 0 -0.17
v 0.17 28.03 -0.17
v -0.17 0 -0.17
v -0.17 28.03 -0.17
v -0.25 0 0
v -0.25 28.03 0
v -0.17 0 0.17
v -0.17 28.03 0.17
v 28.27 0.01 0.08
v 14.25 -1.06 39.99
v 14.19 -1.24 39.96
v 28.21 -0.16 0.05
v 14.03 -1.33 39.91
v 28.05 -0.24 0
v 13.86 -1.27 39.85
v 27.88 -0.18 -0.05
v 13.78 -1.1 39.82
v 27.8 -0.01 -0.08
v 13.83 -0.92 39.85
v 27.85 0.16 -0.05
v 13.99 -0.83 39.91
v 28.01 0.24 0
v 14.17 -0.89 39.96
v 28.18 0.18 0.05
v 13.78 -1.06 39.99
v -0.23 0.01 0.08
v -0.17 -0.16 0.05
v 13.83 -1.24 39.96
v -0.01 -0.24 0
v 13.99 -1.33 39.91
v 0.15 -0.18 -0.05
v 14.17 -1.27 39.85
v 0.23 -0.01 -0.08
v 14.25 -1.1 39.82
v 0.17 0.16 -0.05
v 14.19 -0.92 39.85
v 0.01 0.24 0
v 14.03 -0.83 39.91
v -0.15 0.18 0.05
v 13.86 -0.89 39.96
v 28.01 28.27 0.08
v 29.1 14.25 39.99
v 29.28 14.19 39.96
v 28.2 28.21 0.05
v 29.37 14.03 39.91
v 28.28 28.05 0
v 29.31 13.86 39.85
v 28.22 27.88 -0.05
v 29.13 13.78 39.82
v 28.05 27.8 -0.08
v 28.95 13.83 39.85
v 27.87 27.85 -0.05
v 28.87 13.99 39.91
v 27.78 28.01 0
v 28.93 14.17 39.96
v 27.84 28.18 0.05
v 29.1 13.78 39.99
v 28.01 -0.23 0.08
v 28.2 -0.17 0.05
v 29.28 13.83 39.96
v 28.28 -0.01 0
v 29.37 13.99 39.91
v 28.22 0.15 -0.05
v 29.31 14.17 39.85
v 28.05 0.23 -0.08
v 29.13 14.25 39.82
v 27.87 0.17 -0.05
v 28.95 14.19 39.85
v 27.78 0.01 0
v 28.87 14.03 39.91
v 27.84 -0.15 0.05
v 28.93 13.86 39.96
v -0.23 28.01 0.08
v 13.78 29.1 39.99
v 13.83 29.28 39.96
v -0.17 28.2 0.05
v 13.99 29.37 39.91
v -0.01 28.28 0
v 14.17 29.31 39.85
v 0.15 28.22 -0.05
v 14.25 29.13 39.82
v 0.23 28.05 -0.08
v 14.19 28.95 39.85
v 0.17 27.87 -0.05
v 14.03 28.87 39.91
v 0.01 27.78 0
v 13.86 28.93 39.96
v -0.15 27.84 0.05
v 14.25 29.1 39.99
v 28.27 28.01 0.08
v 28.21 28.2 0.05
v 14.19 29.28 39.96
v 28.05 28.28 0
v 14.03 29.37 39.91
v 27.88 28.22 -0.05
v 13.86 29.31 39.85
v 27.8 28.05 -0.08
v 13.78 29.13 39.82
v 27.85 27.87 -0.05
v 13.83 28.95 39.85
v 28.01 27.78 0
v 13.99 28.87 39.91
v 28.18 27.84 0.05
v 14.17 28.93 39.96
v 0.01 -0.23 0.08
v -1.06 13.78 39.99
v -1.24 13.83 39.96
v -0.16 -0.17 0.05
v -1.33 13.99 39.91
v -0.24 -0.01 0
v -1.27 14.17 39.85
v -0.18 0.15 -0.05
v -1.1 14.25 39.82
v -0.01 0.23 -0.08
v -0.92 14.19 39.85
v 0.16 0.17 -0.05
v -0.83 14.03 39.91
v 0.24 0.01 0
v -0.89 13.86 39.96
v 0.18 -0.15 0.05
v -1.06 14.25 39.99
v 0.01 28.27 0.08
v -0.16 28.21 0.05
v -1.24 14.19 39.96
v -0.24 28.05 0
v -1.33 14.03 39.91
v -0.18 27.88 -0.05
v -1.27 13.86 39.85
v -0.01 27.8 -0.08
v -1.1 13.78 39.82
v 0.16 27.85 -0.05
v -0.92 13.83 39.85
v 0.24 28.01 0
v -0.83 13.99 39.91
v 0.18 28.18 0.05
v -0.89 14.17 39.96
v 0 0 0.09
v 28.03 0 0.09
v 28.03 28.03 0.09
v 0 0 -0.09
v 28.03 28.03 -0.09
v 28.03 0 -0.09
v 0 28.03 0.09
v 0 28.03 -0.09
v 0 -0.09 0
v 28.03 -0.09 0
v 14.01 -1.18 39.9
v 0 0.09 0
v 14.01 -0.98 39.91
v 28.03 0.09 0
v 28.13 0 0
v 28.13 28.03 0
v 29.22 14.01 39.9
v 27.93 0 0
v 29.02 14.01 39.91
v 27.93 28.03 0
v 28.03 28.13 0
v 0 28.13 0
v 14.01 29.22 39.9
v 28.03 27.93 0
v 14.01 29.02 39.91
v 0 27.93 0
v -0.09 28.03 0
v -0.09 0 0
v -1.18 14.01 39.9
v 0.09 28.03 0
v -0.98 14.01 39.91
v 0.09 0 0
vn 0 0 1
vn 0 0.7 0.7
vn 0 1 0
vn 0 0.7 -0.7
vn 0 0 -1
vn 0 -0.7 -0.7
vn 0 -1 -0
vn 0 -0.7 0.7
vn -1 0 0
vn 1 0 0
vn 0.7 0 -0.7
vn 0.7 0 0.7
vn -0.7 0 0.7
vn -0.7 0 -0.7
vn 0.99 0 0
vn 0.94 0.07 0.33
vn 0.71 -0.65 0.23
vn 0.07 -0.99 0
vn -0.61 -0.75 -0.23
vn -0.94 -0.07 -0.33
vn -0.71 0.65 -0.23
vn -0.07 0.99 -0
vn 0.61 0.75 0.23
vn 0.33 0.02 -0.94
vn -0.33 -0.02 0.94
vn -0.94 0.07 0.33
vn -0.71 -0.65 0.23
vn -0.07 -0.99 0
vn 0.61 -0.75 -0.23
vn 0.94 -0.07 -0.33
vn 0.71 0.65 -0.23
vn 0.07 0.99 -0
vn -0.61 0.75 0.23
vn 0.33 -0.02 0.94
vn -0.33 0.02 -0.94
vn -0.07 0.94 0.33
vn 0.65 0.71 0.23
vn 0.99 0.07 0
vn 0.75 -0.61 -0.23
vn 0.07 -0.94 -0.33
vn -0.65 -0.71 -0.23
vn -0.99 -0.07 -0
vn -0.75 0.61 0.23
vn -0.02 0.33 -0.94
vn 0.02 -0.33 0.94
vn -0.07 -0.94 0.33
vn 0.65 -0.71 0.23
vn 0.99 -0.07 0
vn 0.75 0.61 -0.23
vn 0.07 0.94 -0.33
vn -0.65 0.71 -0.23
vn -0.99 0.07 -0
vn -0.75 -0.61 0.23
vn 0.02 0.33 0.94
vn -0.02 -0.33 -0.94
vn -0.94 -0.07 0.33
vn -0.71 0.65 0.23
vn 0.61 0.75 -0.23
vn 0.94 0.07 -0.33
vn 0.71 -0.65 -0.23
vn -0.61 -0.75 0.23
vn -0.33 -0.02 -0.94
vn 0.33 0.02 0.94
vn 0.94 -0.07 0.33
vn 0.71 0.65 0.23
vn -0.61 0.75 -0.23
vn -0.94 0.07 -0.33
vn -0.71 -0.65 -0.23
vn 0.61 -0.75 0.23
vn -0.33 0.02 0.94
vn 0.33 -0.02 -0.94
vn 0.07 -0.94 0.33
vn -0.65 -0.71 0.23
vn -0.75 0.61 -0.23
vn -0.07 0.94 -0.33
vn 0.65 0.71 -0.23
vn 0.75 -0.61 0.23
vn 0.02 -0.33 -0.94
vn -0.02 0.33 0.94
vn 0.07 0.94 0.33
vn -0.65 0.71 0.23
vn -0.75 -0.61 -0.23
vn -0.07 -0.94 -0.33
vn 0.65 -0.71 -0.23
vn 0.75 0.61 0.23
vn -0.02 -0.33 0.94
vn 0.02 0.33 -0.94
vn 0 -0.99 -0.02
vn 0 0.99 0.02
vn 0 0.02 -0.99
vn 0.94 -0 0.33
vn -0.94 -0 0.33
vn 0.99 0 -0.02
vn -0.99 0 0.02
vn -0.02 0 -0.99
vn 0 0.94 0.33
vn 0 -0.94 0.33
vn 0 0.99 -0.02
vn 0 -0.99 0.02
vn 0 -0.02 -0.99
vn -0.99 0 -0.02
vn 0.99 0 0.02
vn 0.02 0 -0.99
f 1//1 2//1 3//1
f 1//1 3//1 4//1
f 4//2 3//2 5//2
f 4//2 5//2 6//2
f 6//3 5//3 7//3
f 6//3 7//3 8//3
f 8//4 7//4 9//4
f 8//4 9//4 10//4
f 10//5 9//5 11//5
f 10//5 11//5 12//5
f 12//6 11//6 13//6
f 12//6 13//6 14//6
f 14//7 13//7 15//7
f 14//7 15//7 16//7
f 16//8 15//8 2//8
f 16//8 2//8 1//8
f 1//9 4//9 6//9
f 1//9 6//9 8//9
f 1//9 8//9 10//9
f 1//9 10//9 12//9
f 1//9 12//9 14//9
f 1//9 14//9 16//9
f 15//10 13//10 11//10
f 15//10 11//10 9//10
f 15//10 9//10 7//10
f 15//10 7//10 5//10
f 15//10 5//10 3//10
f 15//10 3//10 2//10
f 9//5 17//5 18//5
f 9//5 18//5 19//5
f 19//11 18//11 20//11
f 19//11 20//11 21//11
f 21//10 20//10 22//10
f 21//10 22//10 23//10
f 23//12 22//12 24//12
f 23//12 24//12 2//12
f 2//1 24//1 25//1
f 2//1 25//1 26//1
f 26//13 25//13 27//13
f 26//13 27//13 28//13
f 28//9 27//9 29//9
f 28//9 29//9 30//9
f 30//14 29//14 17//14
f 30//14 17//14 9//14
f 9//7 19//7 21//7
f 9//7 21//7 23//7
f 9//7 23//7 2//7
f 9//7 2//7 26//7
f 9//7 26//7 28//7
f 9//7 28//7 30//7
f 29//3 27//3 25//3
f 29//3 25//3 24//3
f 29//3 24//3 22//3
f 29//3 22//3 20//3
f 29//3 20//3 18//3
f 29//3 18//3 17//3
f 24//1 31//1 32//1
f 24//1 32//1 33//1
f 33//8 32//8 34//8
f 33//8 34//8 35//8
f 35//7 34//7 36//7
f 35//7 36//7 37//7
f 37//6 36//6 38//6
f 37//6 38//6 17//6
f 17//5 38//5 39//5
f 17//5 39//5 40//5
f 40//4 39//4 41//4
f 40//4 41//4 42//4
f 42//3 41//3 43//3
f 42//3 43//3 44//3
f 44//2 43//2 31//2
f 44//2 31//2 24//2
f 24//10 33//10 35//10
f 24//10 35//10 37//10
f 24//10 37//10 17//10
f 24//10 17//10 40//10
f 24//10 40//10 42//10
f 24//15 42//15 44//15
f 43//9 41//9 39//9
f 43//9 39//9 38//9
f 43//9 38//9 36//9
f 43//9 36//9 34//9
f 43//9 34//9 32//9
f 43//9 32//9 31//9
f 31//1 1//1 45//1
f 31//1 45//1 46//1
f 46//12 45//12 47//12
f 46//12 47//12 48//12
f 48//10 47//10 49//10
f 48//10 49//10 50//10
f 50//11 49//11 10//11
f 50//11 10//11 38//11
f 38//5 10//5 51//5
f 38//5 51//5 52//5
f 52//14 51//14 53//14
f 52//14 53//14 54//14
f 54//9 53//9 55//9
f 54//9 55//9 56//9
f 56//13 55//13 1//13
f 56//13 1//13 31//13
f 31//3 46//3 48//3
f 31//3 48//3 50//3
f 31//3 50//3 38//3
f 31//3 38//3 52//3
f 31//3 52//3 54//3
f 31//3 54//3 56//3
f 55//7 53//7 51//7
f 55//7 51//7 10//7
f 55//7 10//7 49//7
f 55//7 49//7 47//7
f 55//7 47//7 45//7
f 55//7 45//7 1//7
f 1//1 2//1 3//1
f 1//1 3//1 4//1
f 4//2 3//2 5//2
f 4//2 5//2 6//2
f 6//3 5//3 7//3
f 6//3 7//3 8//3
f 8//4 7//4 9//4
f 8//4 9//4 10//4
f 10//5 9//5 11//5
f 10//5 11//5 12//5
f 12//6 11//6 13//6
f 12//6 13//6 14//6
f 14//7 13//7 15//7
f 14//7 15//7 16//7
f 16//8 15//8 2//8
f 16//8 2//8 1//8
f 1//9 4//9 6//9
f 1//9 6//9 8//9
f 1//9 8//9 10//9
f 1//9 10//9 12//9
f 1//9 12//9 14//9
f 1//9 14//9 16//9
f 15//10 13//10 11//10
f 15//10 11//10 9//10
f 15//10 9//10 7//10
f 15//10 7//10 5//10
f 15//10 5//10 3//10
f 15//10 3//10 2//10
f 9//5 17//5 18//5
f 9//5 18//5 19//5
f 19//11 18//11 20//11
f 19//11 20//11 21//11
f 21//10 20//10 22//10
f 21//10 22//10 23//10
f 23//12 22//12 24//12
f 23//12 24//12 2//12
f 2//1 24//1 25//1
f 2//1 25//1 26//1
f 26//13 25//13 27//13
f 26//13 27//13 28//13
f 28//9 27//9 29//9
f 28//9 29//9 30//9
f 30//14 29//14 17//14
f 30//14 17//14 9//14
f 9//7 19//7 21//7
f 9//7 21//7 23//7
f 9//7 23//7 2//7
f 9//7 2//7 26//7
f 9//7 26//7 28//7
f 9//7 28//7 30//7
f 29//3 27//3 25//3
f 29//3 25//3 24//3
f 29//3 24//3 22//3
f 29//3 22//3 20//3
f 29//3 20//3 18//3
f 29//3 18//3 17//3
f 24//1 31//1 32//1
f 24//1 32//1 33//1
f 33//8 32//8 34//8
f 33//8 34//8 35//8
f 35//7 34//7 36//7
f 35//7 36//7 37//7
f 37//6 36//6 38//6
f 37//6 38//6 17//6
f 17//5 38//5 39//5
f 17//5 39//5 40//5
f 40//4 39//4 41//4
f 40//4 41//4 42//4
f 42//3 41//3 43//3
f 42//3 43//3 44//3
f 44//2 43//2 31//2
f 44//2 31//2 24//2
f 24//10 33//10 35//10
f 24//10 35//10 37//10
f 24//10 37//10 17//10
f 24//10 17//10 40//10
f 24//10 40//10 42//10
f 24//15 42//15 44//15
f 43//9 41//9 39//9
f 43//9 39//9 38//9
f 43//9 38//9 36//9
f 43//9 36//9 34//9
f 43//9 34//9 32//9
f 43//9 32//9 31//9
f 31//1 1//1 45//1
f 31//1 45//1 46//1
f 46//12 45//12 47//12
f 46//12 47//12 48//12
f 48//10 47//10 49//10
f 48//10 49//10 50//10
f 50//11 49//11 10//11
f 50//11 10//11 38//11
f 38//5 10//5 51//5
f 38//5 51//5 52//5
f 52//14 51//14 53//14
f 52//14 53//14 54//14
f 54//9 53//9 55//9
f 54//9 55//9 56//9
f 56//13 55//13 1//13
f 56//13 1//13 31//13
f 31//3 46//3 48//3
f 31//3 48//3 50//3
f 31//3 50//3 38//3
f 31//3 38//3 52//3
f 31//3 52//3 54//3
f 31//3 54//3 56//3
f 55//7 53//7 51//7
f 55//7 51//7 10//7
f 55//7 10//7 49//7
f 55//7 49//7 47//7
f 55//7 47//7 45//7
f 55//7 45//7 1//7
f 57//16 58//16 59//16
f 57//16 59//16 60//16
f 60//17 59//17 61//17
f 60//17 61//17 62//17
f 62//18 61//18 63//18
f 62//18 63//18 64//18
f 64//19 63//19 65//19
f 64//19 65//19 66//19
f 66//20 65//20 67//20
f 66//20 67//20 68//20
f 68//21 67//21 69//21
f 68//21 69//21 70//21
f 70//22 69//22 71//22
f 70//22 71//22 72//22
f 72//23 71//23 58//23
f 72//23 58//23 57//23
f 57//24 60//24 62//24
f 57//24 62//24 64//24
f 57//24 64//24 66//24
f 57//24 66//24 68//24
f 57//24 68//24 70//24
f 57//24 70//24 72//24
f 71//25 69//25 67//25
f 71//25 67//25 65//25
f 71//25 65//25 63//25
f 71//25 63//25 61//25
f 71//25 61//25 59//25
f 71//25 59//25 58//25
f 73//26 74//26 75//26
f 73//26 75//26 76//26
f 76//27 75//27 77//27
f 76//27 77//27 78//27
f 78//28 77//28 79//28
f 78//28 79//28 80//28
f 80//29 79//29 81//29
f 80//29 81//29 82//29
f 82//30 81//30 83//30
f 82//30 83//30 84//30
f 84//31 83//31 85//31
f 84//31 85//31 86//31
f 86//32 85//32 87//32
f 86//32 87//32 88//32
f 88//33 87//33 74//33
f 88//33 74//33 73//33
f 73//34 76//34 78//34
f 73//34 78//34 80//34
f 73//34 80//34 82//34
f 73//34 82//34 84//34
f 73//34 84//34 86//34
f 73//34 86//34 88//34
f 87//35 85//35 83//35
f 87//35 83//35 81//35
f 87//35 81//35 79//35
f 87//35 79//35 77//35
f 87//35 77//35 75//35
f 87//35 75//35 74//35
f 89//36 90//36 91//36
f 89//36 91//36 92//36
f 92//37 91//37 93//37
f 92//37 93//37 94//37
f 94//38 93//38 95//38
f 94//38 95//38 96//38
f 96//39 95//39 97//39
f 96//39 97//39 98//39
f 98//40 97//40 99//40
f 98//40 99//40 100//40
f 100//41 99//41 101//41
f 100//41 101//41 102//41
f 102//42 101//42 103//42
f 102//42 103//42 104//42
f 104//43 103//43 90//43
f 104//43 90//43 89//43
f 89//44 92//44 94//44
f 89//44 94//44 96//44
f 89//44 96//44 98//44
f 89//44 98//44 100//44
f 89//44 100//44 102//44
f 89//44 102//44 104//44
f 103//45 101//45 99//45
f 103//45 99//45 97//45
f 103//45 97//45 95//45
f 103//45 95//45 93//45
f 103//45 93//45 91//45
f 103//45 91//45 90//45
f 105//46 106//46 107//46
f 105//46 107//46 108//46
f 108//47 107//47 109//47
f 108//47 109//47 110//47
f 110//48 109//48 111//48
f 110//48 111//48 112//48
f 112//49 111//49 113//49
f 112//49 113//49 114//49
f 114//50 113//50 115//50
f 114//50 115//50 116//50
f 116//51 115//51 117//51
f 116//51 117//51 118//51
f 118//52 117//52 119//52
f 118//52 119//52 120//52
f 120//53 119//53 106//53
f 120//53 106//53 105//53
f 105//54 108//54 110//54
f 105//54 110//54 112//54
f 105//54 112//54 114//54
f 105//54 114//54 116//54
f 105//54 116//54 118//54
f 105//54 118//54 120//54
f 119//55 117//55 115//55
f 119//55 115//55 113//55
f 119//55 113//55 111//55
f 119//55 111//55 109//55
f 119//55 109//55 107//55
f 119//55 107//55 106//55
f 121//56 122//56 123//56
f 121//56 123//56 124//56
f 124//57 123//57 125//57
f 124//57 125//57 126//57
f 126//22 125//22 127//22
f 126//22 127//22 128//22
f 128//58 127//58 129//58
f 128//58 129//58 130//58
f 130//59 129//59 131//59
f 130//59 131//59 132//59
f 132//60 131//60 133//60
f 132//60 133//60 134//60
f 134//18 133//18 135//18
f 134//18 135//18 136//18
f 136//61 135//61 122//61
f 136//61 122//61 121//61
f 121//62 124//62 126//62
f 121//62 126//62 128//62
f 121//62 128//62 130//62
f 121//62 130//62 132//62
f 121//62 132//62 134//62
f 121//62 134//62 136//62
f 135//63 133//63 131//63
f 135//63 131//63 129//63
f 135//63 129//63 127//63
f 135//63 127//63 125//63
f 135//63 125//63 123//63
f 135//63 123//63 122//63
f 137//64 138//64 139//64
f 137//64 139//64 140//64
f 140//65 139//65 141//65
f 140//65 141//65 142//65
f 142//32 141//32 143//32
f 142//32 143//32 144//32
f 144//66 143//66 145//66
f 144//66 145//66 146//66
f 146//67 145//67 147//67
f 146//67 147//67 148//67
f 148//68 147//68 149//68
f 148//68 149//68 150//68
f 150//28 149//28 151//28
f 150//28 151//28 152//28
f 152//69 151//69 138//69
f 152//69 138//69 137//69
f 137//70 140//70 142//70
f 137//70 142//70 144//70
f 137//70 144//70 146//70
f 137//70 146//70 148//70
f 137//70 148//70 150//70
f 137//70 150//70 152//70
f 151//71 149//71 147//71
f 151//71 147//71 145//71
f 151//71 145//71 143//71
f 151//71 143//71 141//71
f 151//71 141//71 139//71
f 151//71 139//71 138//71
f 153//72 154//72 155//72
f 153//72 155//72 156//72
f 156//73 155//73 157//73
f 156//73 157//73 158//73
f 158//42 157//42 159//42
f 158//42 159//42 160//42
f 160//74 159//74 161//74
f 160//74 161//74 162//74
f 162//75 161//75 163//75
f 162//75 163//75 164//75
f 164//76 163//76 165//76
f 164//76 165//76 166//76
f 166//38 165//38 167//38
f 166//38 167//38 168//38
f 168//77 167//77 154//77
f 168//77 154//77 153//77
f 153//78 156//78 158//78
f 153//78 158//78 160//78
f 153//78 160//78 162//78
f 153//78 162//78 164//78
f 153//78 164//78 166//78
f 153//78 166//78 168//78
f 167//79 165//79 163//79
f 167//79 163//79 161//79
f 167//79 161//79 159//79
f 167//79 159//79 157//79
f 167//79 157//79 155//79
f 167//79 155//79 154//79
f 169//80 170//80 171//80
f 169//80 171//80 172//80
f 172//81 171//81 173//81
f 172//81 173//81 174//81
f 174//52 173//52 175//52
f 174//52 175//52 176//52
f 176//82 175//82 177//82
f 176//82 177//82 178//82
f 178//83 177//83 179//83
f 178//83 179//83 180//83
f 180//84 179//84 181//84
f 180//84 181//84 182//84
f 182//48 181//48 183//48
f 182//48 183//48 184//48
f 184//85 183//85 170//85
f 184//85 170//85 169//85
f 169//86 172//86 174//86
f 169//86 174//86 176//86
f 169//86 176//86 178//86
f 169//86 178//86 180//86
f 169//86 180//86 182//86
f 169//86 182//86 184//86
f 183//87 181//87 179//87
f 183//87 179//87 177//87
f 183//87 177//87 175//87
f 183//87 175//87 173//87
f 183//87 173//87 171//87
f 183//87 171//87 170//87
f 185//1 186//1 187//1
f 188//5 189//5 190//5
f 185//1 187//1 191//1
f 188//5 192//5 189//5
f 185//7 188//7 190//7
f 185//7 190//7 186//7
f 186//10 190//10 189//10
f 186//10 189//10 187//10
f 187//3 189//3 192//3
f 187//3 192//3 191//3
f 191//9 192//9 188//9
f 191//9 188//9 185//9
f 185//1 186//1 187//1
f 188//5 189//5 190//5
f 185//1 187//1 191//1
f 188//5 192//5 189//5
f 185//7 188//7 190//7
f 185//7 190//7 186//7
f 186//10 190//10 189//10
f 186//10 189//10 187//10
f 187//3 189//3 192//3
f 187//3 192//3 191//3
f 191//9 192//9 188//9
f 191//9 188//9 185//9
f 193//88 194//88 195//88
f 196//89 197//89 198//89
f 193//90 196//90 198//90
f 193//90 198//90 194//90
f 194//91 198//91 197//91
f 194//91 197//91 195//91
f 195//92 197//92 196//92
f 195//92 196//92 193//92
f 199//93 200//93 201//93
f 202//94 203//94 204//94
f 199//95 202//95 204//95
f 199//95 204//95 200//95
f 200//96 204//96 203//96
f 200//96 203//96 201//96
f 201//97 203//97 202//97
f 201//97 202//97 199//97
f 205//98 206//98 207//98
f 208//99 209//99 210//99
f 205//100 208//100 210//100
f 205//100 210//100 206//100
f 206//92 210//92 209//92
f 206//92 209//92 207//92
f 207//91 209//91 208//91
f 207//91 208//91 205//91
f 211//101 212//101 213//101
f 214//102 215//102 216//102
f 211//103 214//103 216//103
f 211//103 216//103 212//103
f 212//97 216//97 215//97
f 212//97 215//97 213//97
f 213//96 215//96 214//96
f 213//96 214//96 211//96
# Vertices: 216, normals: 103, texture coordinates: 0, faces: 504

