# File generated by ImageToStl.com - Free Image and 3D model conversion tools

o obj1
v 0 11.23 0.25
v 0 0 0.25
v 0.17 0 0.17
v 0.17 11.23 0.17
v 0.25 0 0
v 0.25 11.23 0
v 0.17 0 -0.17
v 0.17 11.23 -0.17
v 0 0 -0.25
v 0 11.23 -0.25
v -0.17 0 -0.17
v -0.17 11.23 -0.17
v -0.25 0 0
v -0.25 11.23 0
v -0.17 0 0.17
v -0.17 11.23 0.17
v 11.23 0 0.25
v 11.23 0.17 0.17
v 0 0.17 0.17
v 11.23 0.25 0
v 0 0.25 0
v 11.23 0.17 -0.17
v 0 0.17 -0.17
v 11.23 0 -0.25
v 11.23 -0.17 -0.17
v 0 -0.17 -0.17
v 11.23 -0.25 0
v 0 -0.25 0
v 11.23 -0.17 0.17
v 0 -0.17 0.17
v 11.23 11.23 -0.25
v 11.41 11.23 -0.17
v 11.41 0 -0.17
v 11.48 11.23 0
v 11.48 0 0
v 11.41 11.23 0.17
v 11.41 0 0.17
v 11.23 11.23 0.25
v 11.05 11.23 0.17
v 11.05 0 0.17
v 10.98 11.23 0
v 10.98 0 0
v 11.05 11.23 -0.17
v 11.05 0 -0.17
v 0 11.05 0.17
v 11.23 11.05 0.17
v 0 10.98 0
v 11.23 10.98 0
v 0 11.05 -0.17
v 11.23 11.05 -0.17
v 0 11.41 -0.17
v 11.23 11.41 -0.17
v 0 11.48 0
v 11.23 11.48 0
v 0 11.41 0.17
v 11.23 11.41 0.17
v 0.09 11.23 0.23
v -10.28 11.23 4.53
v -10.31 11.05 4.46
v 0.06 11.05 0.16
v -10.38 10.98 4.29
v -10.44 11.05 4.13
v -0.06 11.05 -0.16
v -10.47 11.23 4.06
v -0.09 11.23 -0.23
v -10.44 11.41 4.13
v -0.06 11.41 -0.16
v -10.38 11.48 4.29
v -10.31 11.41 4.46
v 0.06 11.41 0.16
v -10.38 11.23 4.54
v -10.38 0 4.54
v -10.2 0 4.47
v -10.2 11.23 4.47
v -10.13 0 4.29
v -10.13 11.23 4.29
v -10.2 0 4.12
v -10.2 11.23 4.12
v -10.38 0 4.04
v -10.38 11.23 4.04
v -10.55 0 4.12
v -10.55 11.23 4.12
v -10.63 0 4.29
v -10.63 11.23 4.29
v -10.55 0 4.47
v -10.55 11.23 4.47
v -10.28 0 4.53
v 0.09 0 0.23
v 0.06 0.17 0.16
v -10.31 0.17 4.46
v -10.38 0.25 4.29
v -0.06 0.17 -0.16
v -10.44 0.17 4.13
v -0.09 0 -0.23
v -10.47 0 4.06
v -0.06 -0.17 -0.16
v -10.44 -0.17 4.13
v -10.38 -0.25 4.29
v 0.06 -0.17 0.16
v -10.31 -0.17 4.46
v 0 0.09 0.23
v 0 -10.28 4.53
v 0.17 -10.31 4.46
v 0.17 0.06 0.16
v 0.25 -10.38 4.29
v 0.17 -10.44 4.13
v 0.17 -0.06 -0.16
v 0 -10.47 4.06
v 0 -0.09 -0.23
v -0.17 -10.44 4.13
v -0.17 -0.06 -0.16
v -0.25 -10.38 4.29
v -0.17 -10.31 4.46
v -0.17 0.06 0.16
v 0 -10.38 4.54
v 11.23 -10.38 4.54
v 11.23 -10.2 4.47
v 0 -10.2 4.47
v 11.23 -10.13 4.29
v 0 -10.13 4.29
v 11.23 -10.2 4.12
v 0 -10.2 4.12
v 11.23 -10.38 4.04
v 0 -10.38 4.04
v 11.23 -10.55 4.12
v 0 -10.55 4.12
v 11.23 -10.63 4.29
v 0 -10.63 4.29
v 11.23 -10.55 4.47
v 0 -10.55 4.47
v 11.23 -10.47 4.06
v 11.23 -0.09 -0.23
v 11.41 -0.06 -0.16
v 11.41 -10.44 4.13
v 11.48 -10.38 4.29
v 11.41 0.06 0.16
v 11.41 -10.31 4.46
v 11.23 0.09 0.23
v 11.23 -10.28 4.53
v 11.05 0.06 0.16
v 11.05 -10.31 4.46
v 10.98 -10.38 4.29
v 11.05 -0.06 -0.16
v 11.05 -10.44 4.13
v 11.14 0 0.23
v 21.52 0 4.53
v 21.54 0.17 4.46
v 11.16 0.17 0.16
v 21.61 0.25 4.29
v 21.68 0.17 4.13
v 11.3 0.17 -0.16
v 21.71 0 4.06
v 11.33 0 -0.23
v 21.68 -0.17 4.13
v 11.3 -0.17 -0.16
v 21.61 -0.25 4.29
v 21.54 -0.17 4.46
v 11.16 -0.17 0.16
v 21.61 0 4.04
v 21.61 11.23 4.04
v 21.79 11.23 4.12
v 21.79 0 4.12
v 21.86 11.23 4.29
v 21.86 0 4.29
v 21.79 11.23 4.47
v 21.79 0 4.47
v 21.61 11.23 4.54
v 21.61 0 4.54
v 21.43 11.23 4.47
v 21.43 0 4.47
v 21.36 11.23 4.29
v 21.36 0 4.29
v 21.43 11.23 4.12
v 21.43 0 4.12
v 21.52 11.23 4.53
v 11.14 11.23 0.23
v 11.16 11.05 0.16
v 21.54 11.05 4.46
v 21.61 10.98 4.29
v 11.3 11.05 -0.16
v 21.68 11.05 4.13
v 11.33 11.23 -0.23
v 21.71 11.23 4.06
v 11.3 11.41 -0.16
v 21.68 11.41 4.13
v 21.61 11.48 4.29
v 11.16 11.41 0.16
v 21.54 11.41 4.46
v 11.23 11.33 -0.23
v 11.23 21.71 4.06
v 11.41 21.68 4.13
v 11.41 11.3 -0.16
v 11.48 21.61 4.29
v 11.41 21.54 4.46
v 11.41 11.16 0.16
v 11.23 21.52 4.53
v 11.23 11.14 0.23
v 11.05 21.54 4.46
v 11.05 11.16 0.16
v 10.98 21.61 4.29
v 11.05 21.68 4.13
v 11.05 11.3 -0.16
v 11.23 21.61 4.54
v 0 21.61 4.54
v 0 21.43 4.47
v 11.23 21.43 4.47
v 0 21.36 4.29
v 11.23 21.36 4.29
v 0 21.43 4.12
v 11.23 21.43 4.12
v 0 21.61 4.04
v 11.23 21.61 4.04
v 0 21.79 4.12
v 11.23 21.79 4.12
v 0 21.86 4.29
v 11.23 21.86 4.29
v 0 21.79 4.47
v 11.23 21.79 4.47
v 0 21.52 4.53
v 0 11.14 0.23
v 0.17 11.16 0.16
v 0.17 21.54 4.46
v 0.25 21.61 4.29
v 0.17 11.3 -0.16
v 0.17 21.68 4.13
v 0 11.33 -0.23
v 0 21.71 4.06
v -0.17 11.3 -0.16
v -0.17 21.68 4.13
v -0.25 21.61 4.29
v -0.17 11.16 0.16
v -0.17 21.54 4.46
v -18.14 11.23 12.42
v -18.2 11.05 12.36
v -10.25 11.05 4.42
v -18.32 10.98 12.24
v -18.45 11.05 12.11
v -10.5 11.05 4.17
v -18.5 11.23 12.06
v -18.45 11.41 12.11
v -10.5 11.41 4.17
v -18.32 11.48 12.24
v -18.2 11.41 12.36
v -10.25 11.41 4.42
v -18.32 11.23 12.49
v -18.32 0 12.49
v -18.14 0 12.42
v -18.07 0 12.24
v -18.07 11.23 12.24
v -18.14 0 12.06
v -18.14 11.23 12.06
v -18.32 0 11.99
v -18.32 11.23 11.99
v -18.5 0 12.06
v -18.57 0 12.24
v -18.57 11.23 12.24
v -18.5 0 12.42
v -18.5 11.23 12.42
v -10.25 0.17 4.42
v -18.2 0.17 12.36
v -18.32 0.25 12.24
v -10.5 0.17 4.17
v -18.45 0.17 12.11
v -10.5 -0.17 4.17
v -18.45 -0.17 12.11
v -18.32 -0.25 12.24
v -10.25 -0.17 4.42
v -18.2 -0.17 12.36
v 0 11.23 0.09
v 0 0 0.09
v 11.23 0 0.09
v 0 11.23 -0.09
v 11.23 0 -0.09
v 0 0 -0.09
v 11.23 11.23 0.09
v 11.23 11.23 -0.09
v 0.03 0 0.09
v 0.03 11.23 0.09
v -10.34 11.23 4.39
v -0.03 0 -0.09
v -10.41 11.23 4.2
v -0.03 11.23 -0.09
v -10.34 0 4.39
v -10.41 0 4.2
v 11.23 0.03 0.09
v 0 0.03 0.09
v 0 -10.34 4.39
v 11.23 -0.03 -0.09
v 0 -10.41 4.2
v 0 -0.03 -0.09
v 11.23 -10.34 4.39
v 11.23 -10.41 4.2
v 11.19 11.23 0.09
v 11.19 0 0.09
v 21.57 0 4.39
v 11.27 11.23 -0.09
v 21.65 0 4.2
v 11.27 0 -0.09
v 21.57 11.23 4.39
v 21.65 11.23 4.2
v 0 11.19 0.09
v 11.23 11.19 0.09
v 11.23 21.57 4.39
v 0 11.27 -0.09
v 11.23 21.65 4.2
v 11.23 11.27 -0.09
v 0 21.57 4.39
v 0 21.65 4.2
v -10.3 0 4.37
v -10.3 11.23 4.37
v -18.25 11.23 12.31
v -10.45 0 4.22
v -18.39 11.23 12.17
v -10.45 11.23 4.22
v -18.25 0 12.31
v -18.39 0 12.17
vn 0 0 1
vn 0.7 0 0.7
vn 1 0 0
vn 0.7 0 -0.7
vn 0 0 -1
vn -0.7 0 -0.7
vn -1 0 -0
vn -0.7 0 0.7
vn 0 1 0
vn 0 0.99 0
vn 0 -1 0
vn 0 0.7 0.7
vn 0 0.7 -0.7
vn 0 -0.7 -0.7
vn 0 -0.7 0.7
vn -0.99 0 0
vn 0 -0.99 0
vn 0.99 0 0
vn 0.38 0 0.92
vn 0.27 -0.7 0.65
vn -0.27 -0.7 -0.65
vn -0.38 -0 -0.92
vn -0.27 0.7 -0.65
vn 0.27 0.7 0.65
vn 0.92 0 -0.38
vn -0.92 -0 0.38
vn 0 0.38 0.92
vn 0.7 0.27 0.65
vn 0.7 -0.27 -0.65
vn 0 -0.38 -0.92
vn -0.7 -0.27 -0.65
vn -0.7 0.27 0.65
vn -0 0.92 -0.38
vn 0 -0.92 0.38
vn -0.38 0 0.92
vn -0.27 0.7 0.65
vn 0.27 0.7 -0.65
vn 0.38 0 -0.92
vn 0.27 -0.7 -0.65
vn -0.27 -0.7 0.65
vn -0.92 -0 -0.38
vn 0.92 0 0.38
vn 0 0.38 -0.92
vn 0.7 0.27 -0.65
vn 0.7 -0.27 0.65
vn 0 -0.38 0.92
vn -0.7 -0.27 0.65
vn -0.7 0.27 -0.65
vn 0 -0.92 -0.38
vn 0 0.92 0.38
vn 0.5 -0.7 0.5
vn -0.5 -0.7 -0.5
vn -0.5 0.7 -0.5
vn 0.5 0.7 0.5
f 1//1 2//1 3//1
f 1//1 3//1 4//1
f 4//2 3//2 5//2
f 4//2 5//2 6//2
f 6//3 5//3 7//3
f 6//3 7//3 8//3
f 8//4 7//4 9//4
f 8//4 9//4 10//4
f 10//5 9//5 11//5
f 10//5 11//5 12//5
f 12//6 11//6 13//6
f 12//6 13//6 14//6
f 14//7 13//7 15//7
f 14//7 15//7 16//7
f 16//8 15//8 2//8
f 16//8 2//8 1//8
f 1//9 4//9 6//9
f 1//9 6//9 8//9
f 1//9 8//9 10//9
f 1//9 10//9 12//9
f 1//9 12//9 14//9
f 1//10 14//10 16//10
f 15//11 13//11 11//11
f 15//11 11//11 9//11
f 15//11 9//11 7//11
f 15//11 7//11 5//11
f 15//11 5//11 3//11
f 15//11 3//11 2//11
f 2//1 17//1 18//1
f 2//1 18//1 19//1
f 19//12 18//12 20//12
f 19//12 20//12 21//12
f 21//9 20//9 22//9
f 21//9 22//9 23//9
f 23//13 22//13 24//13
f 23//13 24//13 9//13
f 9//5 24//5 25//5
f 9//5 25//5 26//5
f 26//14 25//14 27//14
f 26//14 27//14 28//14
f 28//11 27//11 29//11
f 28//11 29//11 30//11
f 30//15 29//15 17//15
f 30//15 17//15 2//15
f 2//7 19//7 21//7
f 2//7 21//7 23//7
f 2//7 23//7 9//7
f 2//7 9//7 26//7
f 2//7 26//7 28//7
f 2//16 28//16 30//16
f 29//3 27//3 25//3
f 29//3 25//3 24//3
f 29//3 24//3 22//3
f 29//3 22//3 20//3
f 29//3 20//3 18//3
f 29//3 18//3 17//3
f 24//5 31//5 32//5
f 24//5 32//5 33//5
f 33//4 32//4 34//4
f 33//4 34//4 35//4
f 35//3 34//3 36//3
f 35//3 36//3 37//3
f 37//2 36//2 38//2
f 37//2 38//2 17//2
f 17//1 38//1 39//1
f 17//1 39//1 40//1
f 40//8 39//8 41//8
f 40//8 41//8 42//8
f 42//7 41//7 43//7
f 42//7 43//7 44//7
f 44//6 43//6 31//6
f 44//6 31//6 24//6
f 24//11 33//11 35//11
f 24//17 35//17 37//17
f 24//11 37//11 17//11
f 24//11 17//11 40//11
f 24//11 40//11 42//11
f 24//11 42//11 44//11
f 43//10 41//10 39//10
f 43//9 39//9 38//9
f 43//9 38//9 36//9
f 43//9 36//9 34//9
f 43//9 34//9 32//9
f 43//9 32//9 31//9
f 38//1 1//1 45//1
f 38//1 45//1 46//1
f 46//15 45//15 47//15
f 46//15 47//15 48//15
f 48//11 47//11 49//11
f 48//11 49//11 50//11
f 50//14 49//14 10//14
f 50//14 10//14 31//14
f 31//5 10//5 51//5
f 31//5 51//5 52//5
f 52//13 51//13 53//13
f 52//13 53//13 54//13
f 54//9 53//9 55//9
f 54//9 55//9 56//9
f 56//12 55//12 1//12
f 56//12 1//12 38//12
f 38//3 46//3 48//3
f 38//3 48//3 50//3
f 38//3 50//3 31//3
f 38//3 31//3 52//3
f 38//3 52//3 54//3
f 38//18 54//18 56//18
f 55//7 53//7 51//7
f 55//7 51//7 10//7
f 55//7 10//7 49//7
f 55//7 49//7 47//7
f 55//7 47//7 45//7
f 55//7 45//7 1//7
f 57//19 58//19 59//19
f 57//19 59//19 60//19
f 60//20 59//20 61//20
f 60//20 61//20 47//20
f 47//11 61//11 62//11
f 47//11 62//11 63//11
f 63//21 62//21 64//21
f 63//21 64//21 65//21
f 65//22 64//22 66//22
f 65//22 66//22 67//22
f 67//23 66//23 68//23
f 67//23 68//23 53//23
f 53//9 68//9 69//9
f 53//9 69//9 70//9
f 70//24 69//24 58//24
f 70//24 58//24 57//24
f 57//25 60//25 47//25
f 57//25 47//25 63//25
f 57//25 63//25 65//25
f 57//25 65//25 67//25
f 57//25 67//25 53//25
f 57//25 53//25 70//25
f 69//26 68//26 66//26
f 69//26 66//26 64//26
f 69//26 64//26 62//26
f 69//26 62//26 61//26
f 69//26 61//26 59//26
f 69//26 59//26 58//26
f 71//1 72//1 73//1
f 71//1 73//1 74//1
f 74//2 73//2 75//2
f 74//2 75//2 76//2
f 76//3 75//3 77//3
f 76//3 77//3 78//3
f 78//4 77//4 79//4
f 78//4 79//4 80//4
f 80//5 79//5 81//5
f 80//5 81//5 82//5
f 82//6 81//6 83//6
f 82//6 83//6 84//6
f 84//7 83//7 85//7
f 84//7 85//7 86//7
f 86//8 85//8 72//8
f 86//8 72//8 71//8
f 71//9 74//9 76//9
f 71//9 76//9 78//9
f 71//10 78//10 80//10
f 71//10 80//10 82//10
f 71//9 82//9 84//9
f 71//9 84//9 86//9
f 85//11 83//11 81//11
f 85//11 81//11 79//11
f 85//11 79//11 77//11
f 85//11 77//11 75//11
f 85//11 75//11 73//11
f 85//11 73//11 72//11
f 87//19 88//19 89//19
f 87//19 89//19 90//19
f 90//24 89//24 21//24
f 90//24 21//24 91//24
f 91//9 21//9 92//9
f 91//9 92//9 93//9
f 93//23 92//23 94//23
f 93//23 94//23 95//23
f 95//22 94//22 96//22
f 95//22 96//22 97//22
f 97//21 96//21 28//21
f 97//21 28//21 98//21
f 98//11 28//11 99//11
f 98//11 99//11 100//11
f 100//20 99//20 88//20
f 100//20 88//20 87//20
f 87//26 90//26 91//26
f 87//26 91//26 93//26
f 87//26 93//26 95//26
f 87//26 95//26 97//26
f 87//26 97//26 98//26
f 87//26 98//26 100//26
f 99//25 28//25 96//25
f 99//25 96//25 94//25
f 99//25 94//25 92//25
f 99//25 92//25 21//25
f 99//25 21//25 89//25
f 99//25 89//25 88//25
f 101//27 102//27 103//27
f 101//27 103//27 104//27
f 104//28 103//28 105//28
f 104//28 105//28 5//28
f 5//3 105//3 106//3
f 5//3 106//3 107//3
f 107//29 106//29 108//29
f 107//29 108//29 109//29
f 109//30 108//30 110//30
f 109//30 110//30 111//30
f 111//31 110//31 112//31
f 111//31 112//31 13//31
f 13//7 112//7 113//7
f 13//7 113//7 114//7
f 114//32 113//32 102//32
f 114//32 102//32 101//32
f 101//33 104//33 5//33
f 101//33 5//33 107//33
f 101//33 107//33 109//33
f 101//33 109//33 111//33
f 101//33 111//33 13//33
f 101//33 13//33 114//33
f 113//34 112//34 110//34
f 113//34 110//34 108//34
f 113//34 108//34 106//34
f 113//34 106//34 105//34
f 113//34 105//34 103//34
f 113//34 103//34 102//34
f 115//1 116//1 117//1
f 115//1 117//1 118//1
f 118//12 117//12 119//12
f 118//12 119//12 120//12
f 120//9 119//9 121//9
f 120//9 121//9 122//9
f 122//13 121//13 123//13
f 122//13 123//13 124//13
f 124//5 123//5 125//5
f 124//5 125//5 126//5
f 126//14 125//14 127//14
f 126//14 127//14 128//14
f 128//11 127//11 129//11
f 128//11 129//11 130//11
f 130//15 129//15 116//15
f 130//15 116//15 115//15
f 115//7 118//7 120//7
f 115//7 120//7 122//7
f 115//16 122//16 124//16
f 115//16 124//16 126//16
f 115//7 126//7 128//7
f 115//7 128//7 130//7
f 129//3 127//3 125//3
f 129//3 125//3 123//3
f 129//3 123//3 121//3
f 129//3 121//3 119//3
f 129//3 119//3 117//3
f 129//3 117//3 116//3
f 131//30 132//30 133//30
f 131//30 133//30 134//30
f 134//29 133//29 35//29
f 134//29 35//29 135//29
f 135//3 35//3 136//3
f 135//3 136//3 137//3
f 137//28 136//28 138//28
f 137//28 138//28 139//28
f 139//27 138//27 140//27
f 139//27 140//27 141//27
f 141//32 140//32 42//32
f 141//32 42//32 142//32
f 142//7 42//7 143//7
f 142//7 143//7 144//7
f 144//31 143//31 132//31
f 144//31 132//31 131//31
f 131//34 134//34 135//34
f 131//34 135//34 137//34
f 131//34 137//34 139//34
f 131//34 139//34 141//34
f 131//34 141//34 142//34
f 131//34 142//34 144//34
f 143//33 42//33 140//33
f 143//33 140//33 138//33
f 143//33 138//33 136//33
f 143//33 136//33 35//33
f 143//33 35//33 133//33
f 143//33 133//33 132//33
f 145//35 146//35 147//35
f 145//35 147//35 148//35
f 148//36 147//36 149//36
f 148//36 149//36 20//36
f 20//9 149//9 150//9
f 20//9 150//9 151//9
f 151//37 150//37 152//37
f 151//37 152//37 153//37
f 153//38 152//38 154//38
f 153//38 154//38 155//38
f 155//39 154//39 156//39
f 155//39 156//39 27//39
f 27//11 156//11 157//11
f 27//11 157//11 158//11
f 158//40 157//40 146//40
f 158//40 146//40 145//40
f 145//41 148//41 20//41
f 145//41 20//41 151//41
f 145//41 151//41 153//41
f 145//41 153//41 155//41
f 145//41 155//41 27//41
f 145//41 27//41 158//41
f 157//42 156//42 154//42
f 157//42 154//42 152//42
f 157//42 152//42 150//42
f 157//42 150//42 149//42
f 157//42 149//42 147//42
f 157//42 147//42 146//42
f 159//5 160//5 161//5
f 159//5 161//5 162//5
f 162//4 161//4 163//4
f 162//4 163//4 164//4
f 164//3 163//3 165//3
f 164//3 165//3 166//3
f 166//2 165//2 167//2
f 166//2 167//2 168//2
f 168//1 167//1 169//1
f 168//1 169//1 170//1
f 170//8 169//8 171//8
f 170//8 171//8 172//8
f 172//7 171//7 173//7
f 172//7 173//7 174//7
f 174//6 173//6 160//6
f 174//6 160//6 159//6
f 159//11 162//11 164//11
f 159//17 164//17 166//17
f 159//17 166//17 168//17
f 159//11 168//11 170//11
f 159//11 170//11 172//11
f 159//11 172//11 174//11
f 173//9 171//9 169//9
f 173//10 169//10 167//10
f 173//9 167//9 165//9
f 173//9 165//9 163//9
f 173//9 163//9 161//9
f 173//9 161//9 160//9
f 175//35 176//35 177//35
f 175//35 177//35 178//35
f 178//40 177//40 48//40
f 178//40 48//40 179//40
f 179//11 48//11 180//11
f 179//11 180//11 181//11
f 181//39 180//39 182//39
f 181//39 182//39 183//39
f 183//38 182//38 184//38
f 183//38 184//38 185//38
f 185//37 184//37 54//37
f 185//37 54//37 186//37
f 186//9 54//9 187//9
f 186//9 187//9 188//9
f 188//36 187//36 176//36
f 188//36 176//36 175//36
f 175//42 178//42 179//42
f 175//42 179//42 181//42
f 175//42 181//42 183//42
f 175//42 183//42 185//42
f 175//42 185//42 186//42
f 175//42 186//42 188//42
f 187//41 54//41 184//41
f 187//41 184//41 182//41
f 187//41 182//41 180//41
f 187//41 180//41 48//41
f 187//41 48//41 177//41
f 187//41 177//41 176//41
f 189//43 190//43 191//43
f 189//43 191//43 192//43
f 192//44 191//44 193//44
f 192//44 193//44 34//44
f 34//3 193//3 194//3
f 34//3 194//3 195//3
f 195//45 194//45 196//45
f 195//45 196//45 197//45
f 197//46 196//46 198//46
f 197//46 198//46 199//46
f 199//47 198//47 200//47
f 199//47 200//47 41//47
f 41//7 200//7 201//7
f 41//7 201//7 202//7
f 202//48 201//48 190//48
f 202//48 190//48 189//48
f 189//49 192//49 34//49
f 189//49 34//49 195//49
f 189//49 195//49 197//49
f 189//49 197//49 199//49
f 189//49 199//49 41//49
f 189//49 41//49 202//49
f 201//50 200//50 198//50
f 201//50 198//50 196//50
f 201//50 196//50 194//50
f 201//50 194//50 193//50
f 201//50 193//50 191//50
f 201//50 191//50 190//50
f 203//1 204//1 205//1
f 203//1 205//1 206//1
f 206//15 205//15 207//15
f 206//15 207//15 208//15
f 208//11 207//11 209//11
f 208//11 209//11 210//11
f 210//14 209//14 211//14
f 210//14 211//14 212//14
f 212//5 211//5 213//5
f 212//5 213//5 214//5
f 214//13 213//13 215//13
f 214//13 215//13 216//13
f 216//9 215//9 217//9
f 216//9 217//9 218//9
f 218//12 217//12 204//12
f 218//12 204//12 203//12
f 203//3 206//3 208//3
f 203//3 208//3 210//3
f 203//3 210//3 212//3
f 203//18 212//18 214//18
f 203//3 214//3 216//3
f 203//18 216//18 218//18
f 217//16 215//16 213//16
f 217//7 213//7 211//7
f 217//7 211//7 209//7
f 217//7 209//7 207//7
f 217//7 207//7 205//7
f 217//7 205//7 204//7
f 219//46 220//46 221//46
f 219//46 221//46 222//46
f 222//45 221//45 6//45
f 222//45 6//45 223//45
f 223//3 6//3 224//3
f 223//3 224//3 225//3
f 225//44 224//44 226//44
f 225//44 226//44 227//44
f 227//43 226//43 228//43
f 227//43 228//43 229//43
f 229//48 228//48 14//48
f 229//48 14//48 230//48
f 230//7 14//7 231//7
f 230//7 231//7 232//7
f 232//47 231//47 220//47
f 232//47 220//47 219//47
f 219//50 222//50 223//50
f 219//50 223//50 225//50
f 219//50 225//50 227//50
f 219//50 227//50 229//50
f 219//50 229//50 230//50
f 219//50 230//50 232//50
f 231//49 14//49 228//49
f 231//49 228//49 226//49
f 231//49 226//49 224//49
f 231//49 224//49 6//49
f 231//49 6//49 221//49
f 231//49 221//49 220//49
f 74//2 233//2 234//2
f 74//2 234//2 235//2
f 235//51 234//51 236//51
f 235//51 236//51 61//51
f 61//11 236//11 237//11
f 61//11 237//11 238//11
f 238//52 237//52 239//52
f 238//52 239//52 82//52
f 82//6 239//6 240//6
f 82//6 240//6 241//6
f 241//53 240//53 242//53
f 241//53 242//53 68//53
f 68//9 242//9 243//9
f 68//9 243//9 244//9
f 244//54 243//54 233//54
f 244//54 233//54 74//54
f 74//4 235//4 61//4
f 74//4 61//4 238//4
f 74//4 238//4 82//4
f 74//4 82//4 241//4
f 74//4 241//4 68//4
f 74//4 68//4 244//4
f 243//8 242//8 240//8
f 243//8 240//8 239//8
f 243//8 239//8 237//8
f 243//8 237//8 236//8
f 243//8 236//8 234//8
f 243//8 234//8 233//8
f 245//1 246//1 247//1
f 245//1 247//1 233//1
f 233//2 247//2 248//2
f 233//2 248//2 249//2
f 249//3 248//3 250//3
f 249//3 250//3 251//3
f 251//4 250//4 252//4
f 251//4 252//4 253//4
f 253//5 252//5 254//5
f 253//5 254//5 239//5
f 239//6 254//6 255//6
f 239//6 255//6 256//6
f 256//7 255//7 257//7
f 256//7 257//7 258//7
f 258//8 257//8 246//8
f 258//8 246//8 245//8
f 245//9 233//9 249//9
f 245//9 249//9 251//9
f 245//9 251//9 253//9
f 245//9 253//9 239//9
f 245//9 239//9 256//9
f 245//10 256//10 258//10
f 257//11 255//11 254//11
f 257//11 254//11 252//11
f 257//11 252//11 250//11
f 257//11 250//11 248//11
f 257//11 248//11 247//11
f 257//11 247//11 246//11
f 247//2 73//2 259//2
f 247//2 259//2 260//2
f 260//54 259//54 91//54
f 260//54 91//54 261//54
f 261//9 91//9 262//9
f 261//9 262//9 263//9
f 263//53 262//53 81//53
f 263//53 81//53 254//53
f 254//6 81//6 264//6
f 254//6 264//6 265//6
f 265//52 264//52 98//52
f 265//52 98//52 266//52
f 266//11 98//11 267//11
f 266//11 267//11 268//11
f 268//51 267//51 73//51
f 268//51 73//51 247//51
f 247//8 260//8 261//8
f 247//8 261//8 263//8
f 247//8 263//8 254//8
f 247//8 254//8 265//8
f 247//8 265//8 266//8
f 247//8 266//8 268//8
f 267//4 98//4 264//4
f 267//4 264//4 81//4
f 267//4 81//4 262//4
f 267//4 262//4 91//4
f 267//4 91//4 259//4
f 267//4 259//4 73//4
f 269//1 270//1 271//1
f 272//5 273//5 274//5
f 269//1 271//1 275//1
f 272//5 276//5 273//5
f 269//7 272//7 274//7
f 269//7 274//7 270//7
f 270//11 274//11 273//11
f 270//11 273//11 271//11
f 271//3 273//3 276//3
f 271//3 276//3 275//3
f 275//9 276//9 272//9
f 275//9 272//9 269//9
f 277//19 278//19 279//19
f 280//22 281//22 282//22
f 277//19 279//19 283//19
f 280//22 284//22 281//22
f 277//25 280//25 282//25
f 277//25 282//25 278//25
f 278//9 282//9 281//9
f 278//9 281//9 279//9
f 279//26 281//26 284//26
f 279//26 284//26 283//26
f 283//11 284//11 280//11
f 283//11 280//11 277//11
f 285//27 286//27 287//27
f 288//30 289//30 290//30
f 285//27 287//27 291//27
f 288//30 292//30 289//30
f 285//33 288//33 290//33
f 285//33 290//33 286//33
f 286//7 290//7 289//7
f 286//7 289//7 287//7
f 287//34 289//34 292//34
f 287//34 292//34 291//34
f 291//3 292//3 288//3
f 291//3 288//3 285//3
f 293//35 294//35 295//35
f 296//38 297//38 298//38
f 293//35 295//35 299//35
f 296//38 300//38 297//38
f 293//41 296//41 298//41
f 293//41 298//41 294//41
f 294//11 298//11 297//11
f 294//11 297//11 295//11
f 295//42 297//42 300//42
f 295//42 300//42 299//42
f 299//9 300//9 296//9
f 299//9 296//9 293//9
f 301//46 302//46 303//46
f 304//43 305//43 306//43
f 301//46 303//46 307//46
f 304//43 308//43 305//43
f 301//49 304//49 306//49
f 301//49 306//49 302//49
f 302//3 306//3 305//3
f 302//3 305//3 303//3
f 303//50 305//50 308//50
f 303//50 308//50 307//50
f 307//7 308//7 304//7
f 307//7 304//7 301//7
f 309//2 310//2 311//2
f 312//6 313//6 314//6
f 309//2 311//2 315//2
f 312//6 316//6 313//6
f 309//4 312//4 314//4
f 309//4 314//4 310//4
f 310//9 314//9 313//9
f 310//9 313//9 311//9
f 311//8 313//8 316//8
f 311//8 316//8 315//8
f 315//11 316//11 312//11
f 315//11 312//11 309//11
# Vertices: 316, normals: 54, texture coordinates: 0, faces: 604

